<svg width="25" height="24" viewBox="0 0 25 24" fill="none" xmlns="http://www.w3.org/2000/svg">
<path d="M7.83331 12.75H16.8333" stroke="#14151A" stroke-width="2" stroke-linecap="round" stroke-linejoin="round"/>
<path d="M4.83331 9V6.75C4.83331 5.95435 5.14938 5.19129 5.71199 4.62868C6.2746 4.06607 7.03766 3.75 7.83331 3.75H16.8333C17.629 3.75 18.392 4.06607 18.9546 4.62868C19.5172 5.19129 19.8333 5.95435 19.8333 6.75V9" stroke="#14151A" stroke-width="2" stroke-linecap="round" stroke-linejoin="round"/>
<path d="M7.83331 15.75V12C7.83331 11.4067 7.65737 10.8266 7.32772 10.3333C6.99808 9.83994 6.52954 9.45543 5.98136 9.22836C5.43319 9.0013 4.82999 8.94189 4.24804 9.05765C3.6661 9.1734 3.13155 9.45912 2.71199 9.87868C2.29244 10.2982 2.00671 10.8328 1.89096 11.4147C1.7752 11.9967 1.83461 12.5999 2.06168 13.1481C2.28874 13.6962 2.67326 14.1648 3.1666 14.4944C3.65995 14.8241 4.23997 15 4.83331 15V18.75C4.83331 18.9489 4.91233 19.1397 5.05298 19.2803C5.19364 19.421 5.3844 19.5 5.58331 19.5H19.0833C19.2822 19.5 19.473 19.421 19.6136 19.2803C19.7543 19.1397 19.8333 18.9489 19.8333 18.75V15C20.4267 15 21.0067 14.8241 21.5 14.4944C21.9934 14.1648 22.3779 13.6962 22.605 13.1481C22.832 12.5999 22.8914 11.9967 22.7757 11.4147C22.6599 10.8328 22.3742 10.2982 21.9546 9.87868C21.5351 9.45912 21.0005 9.1734 20.4186 9.05765C19.8366 8.94189 19.2334 9.0013 18.6853 9.22836C18.1371 9.45543 17.6686 9.83994 17.3389 10.3333C17.0093 10.8266 16.8333 11.4067 16.8333 12V15.75" stroke="#14151A" stroke-width="2" stroke-linecap="round" stroke-linejoin="round"/>
</svg>
