<svg fill="none" height="24" viewBox="0 0 25 24" width="25" xmlns="http://www.w3.org/2000/svg"><g stroke="#14151a" stroke-width="2"><path d="m8.91669 15c2.69241 0 4.87501-2.1826 4.87501-4.875 0-2.69239-2.1826-4.875-4.87501-4.875-2.69239 0-4.875 2.18261-4.875 4.875 0 2.6924 2.18261 4.875 4.875 4.875z" stroke-miterlimit="10"/><g stroke-linecap="round" stroke-linejoin="round"><path d="m15.2353 5.42813c.4309-.11689.8754-.17677 1.3219-.17813 1.2929 0 2.5329.51361 3.4471 1.42785.9143.91424 1.4279 2.15422 1.4279 3.44715 0 1.2929-.5136 2.5329-1.4279 3.4471-.9142.9143-2.1542 1.4279-3.4471 1.4279"/><path d="m2.16669 18.5066c.7612-1.0832 1.77191-1.9673 2.94675-2.5777 1.17485-.6103 2.47933-.9289 3.80325-.9289 1.32391 0 2.62841.3186 3.80321.9289 1.1749.6104 2.1856 1.4945 2.9468 2.5777"/><path d="m16.5573 15c1.324-.0008 2.6288.3174 3.8038.9277 1.1749.6104 2.1855 1.4948 2.9462 2.5786"/></g></g></svg>