<svg fill="none" height="24" viewBox="0 0 24 24" width="24" xmlns="http://www.w3.org/2000/svg"><path d="m3 18.999v-13.29996c-.00006-.20527.06305-.40559.18077-.57376s.28433-.29604.47723-.36624l9.671-3.516c.0755-.02749.1566-.03637.2363-.02587s.1557.04007.2216.08619c.0658.04612.1196.10744.1567.17876s.0564.15053.0564.23092v4.953l6.316 2.105c.1992.06635.3725.19372.4952.36405.1228.17033.1889.37499.1888.58495v9.27896h2v2h-22v-2zm2 0h7v-15.14496l-7 2.546zm14 0v-8.558l-5-1.66696v10.22496z" fill="#14151a"/></svg>