<svg fill="none" height="24" viewBox="0 0 24 24" width="24" xmlns="http://www.w3.org/2000/svg"><g stroke="#14151a" stroke-linecap="round" stroke-linejoin="round" stroke-width="2"><path d="m2.25 17.2501v-2.1469c0-5.39063 4.33125-9.83438 9.7125-9.85313 1.2835-.00493 2.5554.24361 3.7427.73139 1.1872.48777 2.2665 1.20517 3.1758 2.11103.9094.90586 1.6309 1.98241 2.1233 3.16771.4923 1.1854.7457 2.4563.7457 3.7399v2.25c0 .1989-.079.3897-.2197.5303-.1406.1407-.3314.2197-.5303.2197h-18c-.19891 0-.38968-.079-.53033-.2197-.14065-.1406-.21967-.3314-.21967-.5303z"/><path d="m12 5.25v3"/><path d="m2.57812 12.4785 2.90626.7781"/><path d="m21.4219 12.4785-2.9063.7781"/><path d="m9.6936 17.9996 6.4125-8.35312"/></g></svg>