<svg fill="none" height="24" viewBox="0 0 24 24" width="24" xmlns="http://www.w3.org/2000/svg"><path d="m4.31696 2.25c-.32822 0-.56696.26667-.56696.56312v18.37378c0 .326.26849.5631.56696.5631h15.36604c.3283 0 .567-.2667.567-.5631v-18.37378c0-.326-.2685-.56312-.567-.56312zm14.79914 18.3441h-14.2024v-14.04701h4.83355v1.03733c0 .326.26845.56312.56695.56312h3.3716c.3283 0 .567-.26667.567-.56312v-1.03733h4.8336v14.04701zm-8.2052-13.57285v-.44444h2.208v.44444zm8.2052-1.6004h-14.2024v-2.01508h14.2323v2.01508z" fill="#14151a" stroke="#000" stroke-width=".2"/></svg>