<svg fill="none" height="24" viewBox="0 0 24 24" width="24" xmlns="http://www.w3.org/2000/svg"><path d="m5 12h-1v8c0 .5304.21071 1.0391.58579 1.4142.37507.3751.88378.5858 1.41421.5858h5v-10zm13 0h-5v10h5c.5304 0 1.0391-.2107 1.4142-.5858s.5858-.8838.5858-1.4142v-8zm.791-5c.1467-.48622.2172-.99221.209-1.5 0-1.93-1.57-3.5-3.5-3.5-1.622 0-2.705 1.482-3.404 3.085-.689-1.515-1.827-3.085-3.596-3.085-1.93 0-3.5 1.57-3.5 3.5 0 .596.079 1.089.209 1.5h-3.209v4h9v-2h2v2h9v-4zm-11.791-1.5c0-.827.673-1.5 1.5-1.5.888 0 1.714 1.525 2.198 3h-2.698c-.374 0-1 0-1-1.5zm8.5-1.5c.827 0 1.5.673 1.5 1.5 0 1.5-.626 1.5-1 1.5h-2.477c.51-1.576 1.251-3 1.977-3z" fill="#34966d"/></svg>