<svg fill="none" height="24" viewBox="0 0 24 24" width="24" xmlns="http://www.w3.org/2000/svg" xmlns:xlink="http://www.w3.org/1999/xlink"><mask id="a" fill="#fff"><path d="m18 4.5c0 .41405-.3356.75-.75.75-.4141 0-.75-.33596-.75-.75 0-.41405.336-.75.75-.75.4144 0 .75.33596.75.75z" fill="#fff"/></mask><mask id="b" fill="#fff"><path d="m15.75 4.5c0 .41405-.3356.75-.75.75-.4141 0-.75-.33596-.75-.75 0-.41405.336-.75.75-.75.4144 0 .75.33596.75.75z" fill="#fff"/></mask><path d="m19.5 2.25h-15.75v18.75h15.75z" stroke="#14151a" stroke-linecap="round" stroke-linejoin="round" stroke-width="1.5"/><path d="m11.625 16.5c2.2782 0 4.125-1.8468 4.125-4.125s-1.8468-4.125-4.125-4.125c-2.27817 0-4.125 1.8468-4.125 4.125s1.84683 4.125 4.125 4.125z" stroke="#14151a" stroke-linecap="round" stroke-linejoin="round" stroke-width="1.5"/><g fill="#14151a"><path d="m18 4.5c0 .41405-.3356.75-.75.75-.4141 0-.75-.33596-.75-.75 0-.41405.336-.75.75-.75.4144 0 .75.33596.75.75z"/><path d="m16.5 4.5c0-.41387.3355-.75.75-.75v3c1.2434 0 2.25-1.00803 2.25-2.25zm.75-.75c.4144 0 .75.33563.75.75h-3c0 1.24245 1.0075 2.25 2.25 2.25zm.75.75c0 .41438-.3356.75-.75.75v-3c-1.2425 0-2.25 1.00751-2.25 2.25zm-.75.75c-.4145 0-.75-.33614-.75-.75h3c0-1.24195-1.0066-2.25-2.25-2.25z" mask="url(#a)"/><path d="m15.75 4.5c0 .41405-.3356.75-.75.75-.4141 0-.75-.33596-.75-.75 0-.41405.336-.75.75-.75.4144 0 .75.33596.75.75z"/><path d="m14.25 4.5c0-.41387.3355-.75.75-.75v3c1.2434 0 2.25-1.00803 2.25-2.25zm.75-.75c.4144 0 .75.33563.75.75h-3c0 1.24245 1.0075 2.25 2.25 2.25zm.75.75c0 .41438-.3356.75-.75.75v-3c-1.2425 0-2.25 1.00751-2.25 2.25zm-.75.75c-.4145 0-.75-.33614-.75-.75h3c0-1.24195-1.0066-2.25-2.25-2.25z" mask="url(#b)"/></g></svg>