<svg fill="none" height="24" viewBox="0 0 25 24" width="25" xmlns="http://www.w3.org/2000/svg"><g fill="#14151a"><path d="m19.3333 2h-9.99999c-1.103 0-2 .897-2 2v6h-2c-1.103 0-2 .897-2 2v9c0 .2652.10536.5196.2929.7071.18753.1875.44189.2929.7071.2929h15.99999c.2652 0 .5196-.1054.7071-.2929.1876-.1875.2929-.4419.2929-.7071v-17c0-1.103-.897-2-2-2zm-13.99999 10h5.99999v8h-5.99999zm13.99999 8h-6v-8c0-1.103-.897-2-2-2h-1.99999v-6h9.99999z"/><path d="m11.3333 6h2v2h-2zm4 0h2v2h-2zm0 4.031h2v1.969h-2zm0 3.969h2v2h-2zm-7.99999.001h2v2h-2z"/></g></svg>