<svg fill="none" height="24" viewBox="0 0 25 24" width="25" xmlns="http://www.w3.org/2000/svg"><g stroke="#14151a" stroke-linecap="round" stroke-linejoin="round" stroke-width="2"><path d="m20.5415 12.375-5.3812 5.3812c-.2779.279-.6081.5003-.9717.6513-.3635.151-.7534.2288-1.1471.2288s-.7835-.0778-1.1471-.2288-.6938-.3723-.9716-.6513l-4.01253-4.0124c-.27892-.2779-.50024-.6081-.65125-.9717s-.22875-.7534-.22875-1.1471.07774-.7835.22875-1.1471.37233-.6938.65125-.97165l5.38123-5.38125"/><path d="m8.91675 15.75-5.25 5.25"/><path d="m14.1667 6 3.75-3.75"/><path d="m22.4167 6.75-3.75 3.75"/><path d="m21.6667 13.5-10.5-10.5"/></g></svg>