<svg fill="none" height="24" viewBox="0 0 25 24" width="25" xmlns="http://www.w3.org/2000/svg"><path d="m7.33331 6v-3c0-.26522.10536-.51957.2929-.70711.18753-.18753.44189-.29289.7071-.29289h11.99999c.2652 0 .5196.10536.7071.29289.1876.18754.2929.44189.2929.70711v14c0 .2652-.1053.5196-.2929.7071-.1875.1875-.4419.2929-.7071.2929h-3v3c0 .552-.45 1-1.007 1h-11.98599c-.13187.0008-.2626-.0245-.38467-.0744-.12208-.0499-.23309-.1234-.32667-.2163-.09357-.0929-.16786-.2034-.2186-.3252-.05074-.1217-.07693-.2522-.07706-.3841l.003-14c0-.552.45-1 1.006-1zm-1.998 2-.002 12h9.99999v-12zm3.998-2h7.99999v10h2v-12h-9.99999zm-2 5h5.99999v2h-5.99999zm0 4h5.99999v2h-5.99999z" fill="#14151a"/></svg>