<svg fill="none" height="24" viewBox="0 0 25 24" width="25" xmlns="http://www.w3.org/2000/svg" xmlns:xlink="http://www.w3.org/1999/xlink"><clipPath id="a"><path d="m.666687 0h24v24h-24z"/></clipPath><mask id="b" height="8" maskUnits="userSpaceOnUse" width="9" x="8" y="9"><path d="m12.6667 17c2.2091 0 4-1.7909 4-4s-1.7909-4-4-4c-2.2092 0-4.00001 1.7909-4.00001 4s1.79081 4 4.00001 4z" fill="#000"/></mask><g clip-path="url(#a)"><path d="m15.9167 13c0 1.7949-1.4551 3.25-3.25 3.25s-3.25001-1.4551-3.25001-3.25 1.45511-3.25 3.25001-3.25 3.25 1.4551 3.25 3.25z" stroke="#000" stroke-width="1.5"/><g fill="#000" mask="url(#b)"><circle cx="10.9445" cy="10.0005" r="2.27783"/><circle cx="14.3613" cy="10.0005" r="2.27783"/></g><path d="m12.6667 17.2461c-2.329 0-4.28696 1.593-4.84196 3.749-.163.633.321 1.251.974 1.251h7.73596c.653 0 1.137-.619.974-1.251-.556-2.156-2.513-3.749-4.842-3.749z" fill="#000"/><path d="m1.66669 10 11.00001-9 11 9" stroke="#000" stroke-miterlimit="10" stroke-width="1.75"/><path d="m4.66669 12v10h16.00001v-10" stroke="#000" stroke-linecap="square" stroke-miterlimit="10" stroke-width="1.75"/><circle cx="12.6667" cy="9" fill="#000" r="2"/></g></svg>