<svg width="21" height="22" viewBox="0 0 21 22" fill="none" xmlns="http://www.w3.org/2000/svg">
<g clip-path="url(#clip0_831_1412)">
<path d="M15.6975 16.1975C14.2018 17.3376 12.3805 17.9693 10.5 18C4.375 18 0.875 11 0.875 11C1.9634 8.97168 3.47299 7.19955 5.3025 5.80252M8.6625 4.21002C9.26479 4.06904 9.88143 3.99857 10.5 4.00002C16.625 4.00002 20.125 11 20.125 11C19.5939 11.9937 18.9604 12.9292 18.235 13.7913M12.355 12.855C12.1147 13.1129 11.8249 13.3198 11.5029 13.4633C11.1809 13.6067 10.8333 13.6839 10.4808 13.6901C10.1284 13.6963 9.77827 13.6315 9.45141 13.4995C9.12455 13.3674 8.82763 13.1709 8.57837 12.9217C8.3291 12.6724 8.13259 12.3755 8.00057 12.0486C7.86855 11.7218 7.80371 11.3717 7.80993 11.0192C7.81615 10.6667 7.8933 10.3191 8.03677 9.99714C8.18024 9.67514 8.3871 9.38534 8.645 9.14502" stroke="#22223B" strokeWidth="1.5" strokeLinecap="round" strokeLinejoin="round"/>
<path d="M0.875 1.375L20.125 20.625" stroke="#22223B" strokeWidth="1.5" strokeLinecap="round" strokeLinejoin="round"/>
</g>
<defs>
<clipPath id="clip0_831_1412">
<rect width="21" height="21" fill="white" transform="translate(0 0.5)"/>
</clipPath>
</defs>
</svg>
