<svg width="21" height="16" viewBox="0 0 21 16" fill="none" xmlns="http://www.w3.org/2000/svg">
<path d="M15.6975 13.1975C14.2018 14.3376 12.3805 14.9693 10.5 15C4.375 15 0.875 8.00002 0.875 8.00002C1.9634 5.97168 3.47299 4.19955 5.3025 2.80252M8.6625 1.21002C9.26479 1.06904 9.88143 0.998568 10.5 1.00002C16.625 1.00002 20.125 8.00002 20.125 8.00002C19.5939 8.99368 18.9604 9.92917 18.235 10.7913M12.355 9.85502C12.1147 10.1129 11.8249 10.3198 11.5029 10.4633C11.1809 10.6067 10.8333 10.6839 10.4808 10.6901C10.1284 10.6963 9.77827 10.6315 9.45141 10.4995C9.12455 10.3674 8.82763 10.1709 8.57837 9.92166C8.3291 9.67239 8.13259 9.37547 8.00057 9.04861C7.86855 8.72175 7.80371 8.37165 7.80993 8.01919C7.81615 7.66673 7.8933 7.31914 8.03677 6.99714C8.18024 6.67514 8.3871 6.38534 8.645 6.14502" stroke="#22223B" strokeWidth="1.5" strokeLinecap="round" strokeLinejoin="round"/>
</svg>
