<svg width="676" height="515" viewBox="0 0 676 515" fill="none" xmlns="http://www.w3.org/2000/svg">
<g opacity="0.5" clip-path="url(#clip0_0_44849)">
<path d="M496.827 174.938H460.895V507.789H496.827V174.938Z" stroke="#22223B" strokeWidth="2" stroke-miterlimit="10" strokeLinecap="round" stroke-linejoin="round"/>
<path d="M447.844 507.789H460.899V172.252H447.844V180.689" stroke="#22223B" strokeWidth="2" stroke-miterlimit="10" strokeLinecap="round" stroke-linejoin="round"/>
<path d="M447.819 191.904H418.117V301.522H405.051V507.789H418.117H447.819" stroke="#22223B" strokeWidth="2" stroke-miterlimit="10" strokeLinecap="round" stroke-linejoin="round"/>
<path d="M437.745 119H434.711V155.872H437.745V119Z" fill="#327D99"/>
<path d="M447.817 177.369V179.709V191.903H417.848L447.817 177.369Z" stroke="#22223B" strokeWidth="2" stroke-miterlimit="10" strokeLinecap="round" stroke-linejoin="round"/>
<path d="M436.227 120.352V183.103" stroke="#22223B" strokeWidth="2" stroke-miterlimit="10" strokeLinecap="round" stroke-linejoin="round"/>
<path d="M469.301 180.055V497.328" stroke="#22223B" strokeWidth="2" stroke-miterlimit="10" strokeLinecap="round" stroke-linejoin="round"/>
<path d="M478.867 180.055V497.328" stroke="#22223B" strokeWidth="2" stroke-miterlimit="10" strokeLinecap="round" stroke-linejoin="round"/>
<path d="M488.426 180.055V497.328" stroke="#22223B" strokeWidth="2" stroke-miterlimit="10" strokeLinecap="round" stroke-linejoin="round"/>
<path d="M443.719 196.836V204.22" stroke="#22223B" strokeWidth="2" stroke-miterlimit="10" strokeLinecap="round" stroke-linejoin="round"/>
<path d="M443.719 229.27V236.653" stroke="#22223B" strokeWidth="2" stroke-miterlimit="10" strokeLinecap="round" stroke-linejoin="round"/>
<path d="M443.719 245.492V252.867" stroke="#22223B" strokeWidth="2" stroke-miterlimit="10" strokeLinecap="round" stroke-linejoin="round"/>
<path d="M443.719 277.926V285.3" stroke="#22223B" strokeWidth="2" stroke-miterlimit="10" strokeLinecap="round" stroke-linejoin="round"/>
<path d="M443.719 294.139V301.513" stroke="#22223B" strokeWidth="2" stroke-miterlimit="10" strokeLinecap="round" stroke-linejoin="round"/>
<path d="M443.719 310.35V317.733" stroke="#22223B" strokeWidth="2" stroke-miterlimit="10" strokeLinecap="round" stroke-linejoin="round"/>
<path d="M443.719 326.572V333.947" stroke="#22223B" strokeWidth="2" stroke-miterlimit="10" strokeLinecap="round" stroke-linejoin="round"/>
<path d="M443.719 342.784V350.168" stroke="#22223B" strokeWidth="2" stroke-miterlimit="10" strokeLinecap="round" stroke-linejoin="round"/>
<path d="M443.719 375.219V382.602" stroke="#22223B" strokeWidth="2" stroke-miterlimit="10" strokeLinecap="round" stroke-linejoin="round"/>
<path d="M443.719 391.44V398.815" stroke="#22223B" strokeWidth="2" stroke-miterlimit="10" strokeLinecap="round" stroke-linejoin="round"/>
<path d="M443.719 407.652V415.027" stroke="#22223B" strokeWidth="2" stroke-miterlimit="10" strokeLinecap="round" stroke-linejoin="round"/>
<path d="M443.719 423.865V431.249" stroke="#22223B" strokeWidth="2" stroke-miterlimit="10" strokeLinecap="round" stroke-linejoin="round"/>
<path d="M443.719 440.086V447.46" stroke="#22223B" strokeWidth="2" stroke-miterlimit="10" strokeLinecap="round" stroke-linejoin="round"/>
<path d="M443.719 472.521V479.895" stroke="#22223B" strokeWidth="2" stroke-miterlimit="10" strokeLinecap="round" stroke-linejoin="round"/>
<path d="M443.719 488.732V496.116" stroke="#22223B" strokeWidth="2" stroke-miterlimit="10" strokeLinecap="round" stroke-linejoin="round"/>
<path d="M434.812 196.836V204.22" stroke="#22223B" strokeWidth="2" stroke-miterlimit="10" strokeLinecap="round" stroke-linejoin="round"/>
<path d="M434.812 213.058V220.432" stroke="#22223B" strokeWidth="2" stroke-miterlimit="10" strokeLinecap="round" stroke-linejoin="round"/>
<path d="M434.812 245.492V252.867" stroke="#22223B" strokeWidth="2" stroke-miterlimit="10" strokeLinecap="round" stroke-linejoin="round"/>
<path d="M434.812 261.704V269.088" stroke="#22223B" strokeWidth="2" stroke-miterlimit="10" strokeLinecap="round" stroke-linejoin="round"/>
<path d="M434.812 310.35V317.733" stroke="#22223B" strokeWidth="2" stroke-miterlimit="10" strokeLinecap="round" stroke-linejoin="round"/>
<path d="M434.812 326.572V333.947" stroke="#22223B" strokeWidth="2" stroke-miterlimit="10" strokeLinecap="round" stroke-linejoin="round"/>
<path d="M434.812 359.006V366.38" stroke="#22223B" strokeWidth="2" stroke-miterlimit="10" strokeLinecap="round" stroke-linejoin="round"/>
<path d="M434.812 391.44V398.815" stroke="#22223B" strokeWidth="2" stroke-miterlimit="10" strokeLinecap="round" stroke-linejoin="round"/>
<path d="M434.812 407.652V415.027" stroke="#22223B" strokeWidth="2" stroke-miterlimit="10" strokeLinecap="round" stroke-linejoin="round"/>
<path d="M434.812 440.086V447.46" stroke="#22223B" strokeWidth="2" stroke-miterlimit="10" strokeLinecap="round" stroke-linejoin="round"/>
<path d="M434.812 456.299V463.683" stroke="#22223B" strokeWidth="2" stroke-miterlimit="10" strokeLinecap="round" stroke-linejoin="round"/>
<path d="M434.812 488.732V496.116" stroke="#22223B" strokeWidth="2" stroke-miterlimit="10" strokeLinecap="round" stroke-linejoin="round"/>
<path d="M425.898 196.836V204.22" stroke="#22223B" strokeWidth="2" stroke-miterlimit="10" strokeLinecap="round" stroke-linejoin="round"/>
<path d="M425.898 213.058V220.432" stroke="#22223B" strokeWidth="2" stroke-miterlimit="10" strokeLinecap="round" stroke-linejoin="round"/>
<path d="M425.898 229.27V236.653" stroke="#22223B" strokeWidth="2" stroke-miterlimit="10" strokeLinecap="round" stroke-linejoin="round"/>
<path d="M425.898 261.704V269.088" stroke="#22223B" strokeWidth="2" stroke-miterlimit="10" strokeLinecap="round" stroke-linejoin="round"/>
<path d="M425.898 277.926V285.3" stroke="#22223B" strokeWidth="2" stroke-miterlimit="10" strokeLinecap="round" stroke-linejoin="round"/>
<path d="M425.898 294.139V301.513" stroke="#22223B" strokeWidth="2" stroke-miterlimit="10" strokeLinecap="round" stroke-linejoin="round"/>
<path d="M425.898 310.35V317.733" stroke="#22223B" strokeWidth="2" stroke-miterlimit="10" strokeLinecap="round" stroke-linejoin="round"/>
<path d="M425.898 342.784V350.168" stroke="#22223B" strokeWidth="2" stroke-miterlimit="10" strokeLinecap="round" stroke-linejoin="round"/>
<path d="M425.898 359.006V366.38" stroke="#22223B" strokeWidth="2" stroke-miterlimit="10" strokeLinecap="round" stroke-linejoin="round"/>
<path d="M425.898 375.219V382.602" stroke="#22223B" strokeWidth="2" stroke-miterlimit="10" strokeLinecap="round" stroke-linejoin="round"/>
<path d="M425.898 407.652V415.027" stroke="#22223B" strokeWidth="2" stroke-miterlimit="10" strokeLinecap="round" stroke-linejoin="round"/>
<path d="M425.898 423.865V431.249" stroke="#22223B" strokeWidth="2" stroke-miterlimit="10" strokeLinecap="round" stroke-linejoin="round"/>
<path d="M425.898 440.086V447.46" stroke="#22223B" strokeWidth="2" stroke-miterlimit="10" strokeLinecap="round" stroke-linejoin="round"/>
<path d="M425.898 456.299V463.683" stroke="#22223B" strokeWidth="2" stroke-miterlimit="10" strokeLinecap="round" stroke-linejoin="round"/>
<path d="M425.898 488.732V496.116" stroke="#22223B" strokeWidth="2" stroke-miterlimit="10" strokeLinecap="round" stroke-linejoin="round"/>
<path d="M416.687 309.604C416.687 310.49 415.792 311.198 414.699 311.198C413.594 311.198 412.711 310.48 412.711 309.604C412.711 308.718 413.606 308.01 414.699 308.01C415.803 308.01 416.687 308.728 416.687 309.604Z" fill="#22223B"/>
<path d="M416.687 318.217C416.687 319.103 415.792 319.812 414.699 319.812C413.594 319.812 412.711 319.094 412.711 318.217C412.711 317.332 413.606 316.623 414.699 316.623C415.803 316.614 416.687 317.332 416.687 318.217Z" fill="#22223B"/>
<path d="M416.687 335.428C416.687 336.314 415.792 337.022 414.699 337.022C413.594 337.022 412.711 336.305 412.711 335.428C412.711 334.543 413.606 333.834 414.699 333.834C415.803 333.834 416.687 334.552 416.687 335.428Z" fill="#22223B"/>
<path d="M416.687 352.647C416.687 353.533 415.792 354.241 414.699 354.241C413.594 354.241 412.711 353.523 412.711 352.647C412.711 351.761 413.606 351.053 414.699 351.053C415.803 351.053 416.687 351.771 416.687 352.647Z" fill="#22223B"/>
<path d="M416.687 361.262C416.687 362.148 415.792 362.856 414.699 362.856C413.594 362.856 412.711 362.139 412.711 361.262C412.711 360.377 413.606 359.668 414.699 359.668C415.803 359.659 416.687 360.377 416.687 361.262Z" fill="#22223B"/>
<path d="M416.687 378.471C416.687 379.357 415.792 380.065 414.699 380.065C413.594 380.065 412.711 379.347 412.711 378.471C412.711 377.585 413.606 376.877 414.699 376.877C415.803 376.877 416.687 377.595 416.687 378.471Z" fill="#22223B"/>
<path d="M416.687 387.085C416.687 387.971 415.792 388.68 414.699 388.68C413.594 388.68 412.711 387.962 412.711 387.085C412.711 386.2 413.606 385.491 414.699 385.491C415.803 385.491 416.687 386.2 416.687 387.085Z" fill="#22223B"/>
<path d="M416.687 404.305C416.687 405.191 415.792 405.899 414.699 405.899C413.594 405.899 412.711 405.182 412.711 404.305C412.711 403.42 413.606 402.711 414.699 402.711C415.803 402.702 416.687 403.42 416.687 404.305Z" fill="#22223B"/>
<path d="M416.687 412.911C416.687 413.796 415.792 414.505 414.699 414.505C413.594 414.505 412.711 413.787 412.711 412.911C412.711 412.025 413.606 411.316 414.699 411.316C415.803 411.316 416.687 412.025 416.687 412.911Z" fill="#22223B"/>
<path d="M416.687 421.514C416.687 422.4 415.792 423.108 414.699 423.108C413.594 423.108 412.711 422.39 412.711 421.514C412.711 420.628 413.606 419.92 414.699 419.92C415.803 419.92 416.687 420.638 416.687 421.514Z" fill="#22223B"/>
<path d="M416.687 438.734C416.687 439.62 415.792 440.328 414.699 440.328C413.594 440.328 412.711 439.61 412.711 438.734C412.711 437.848 413.606 437.14 414.699 437.14C415.803 437.14 416.687 437.858 416.687 438.734Z" fill="#22223B"/>
<path d="M416.687 455.954C416.687 456.839 415.792 457.548 414.699 457.548C413.594 457.548 412.711 456.83 412.711 455.954C412.711 455.068 413.606 454.359 414.699 454.359C415.803 454.359 416.687 455.068 416.687 455.954Z" fill="#22223B"/>
<path d="M416.687 464.558C416.687 465.444 415.792 466.152 414.699 466.152C413.594 466.152 412.711 465.434 412.711 464.558C412.711 463.672 413.606 462.964 414.699 462.964C415.803 462.964 416.687 463.682 416.687 464.558Z" fill="#22223B"/>
<path d="M416.687 473.172C416.687 474.058 415.792 474.767 414.699 474.767C413.594 474.767 412.711 474.049 412.711 473.172C412.711 472.287 413.606 471.578 414.699 471.578C415.803 471.578 416.687 472.287 416.687 473.172Z" fill="#22223B"/>
<path d="M416.687 481.778C416.687 482.663 415.792 483.372 414.699 483.372C413.594 483.372 412.711 482.654 412.711 481.778C412.711 480.901 413.606 480.184 414.699 480.184C415.803 480.184 416.687 480.901 416.687 481.778Z" fill="#22223B"/>
<path d="M456.066 197.594C456.066 198.48 455.17 199.188 454.078 199.188C452.985 199.188 452.09 198.471 452.09 197.594C452.09 196.709 452.985 196 454.078 196C455.17 196 456.066 196.709 456.066 197.594Z" fill="#FE9264"/>
<path d="M455.886 206.299C455.886 207.185 454.991 207.893 453.898 207.893C452.805 207.893 451.91 207.176 451.91 206.299C451.91 205.414 452.805 204.705 453.898 204.705C454.991 204.705 455.886 205.423 455.886 206.299Z" fill="#22223B"/>
<path d="M456.066 214.813C456.066 215.699 455.17 216.407 454.078 216.407C452.985 216.407 452.09 215.689 452.09 214.813C452.09 213.927 452.985 213.219 454.078 213.219C455.17 213.219 456.066 213.927 456.066 214.813Z" fill="#FE9264"/>
<path d="M453.898 225.112C454.996 225.112 455.886 224.398 455.886 223.518C455.886 222.638 454.996 221.924 453.898 221.924C452.8 221.924 451.91 222.638 451.91 223.518C451.91 224.398 452.8 225.112 453.898 225.112Z" fill="#22223B"/>
<path d="M454.078 242.231C455.176 242.231 456.066 241.518 456.066 240.637C456.066 239.757 455.176 239.043 454.078 239.043C452.98 239.043 452.09 239.757 452.09 240.637C452.09 241.518 452.98 242.231 454.078 242.231Z" fill="#FE9264"/>
<path d="M455.886 249.342C455.886 250.228 454.991 250.936 453.898 250.936C452.805 250.936 451.91 250.219 451.91 249.342C451.91 248.457 452.805 247.748 453.898 247.748C454.991 247.748 455.886 248.466 455.886 249.342Z" fill="#22223B"/>
<path d="M456.066 266.461C456.066 267.347 455.17 268.056 454.078 268.056C452.985 268.056 452.09 267.338 452.09 266.461C452.09 265.576 452.985 264.867 454.078 264.867C455.17 264.867 456.066 265.585 456.066 266.461Z" fill="#FE9264"/>
<path d="M453.898 285.374C454.996 285.374 455.886 284.66 455.886 283.78C455.886 282.899 454.996 282.186 453.898 282.186C452.8 282.186 451.91 282.899 451.91 283.78C451.91 284.66 452.8 285.374 453.898 285.374Z" fill="#22223B"/>
<path d="M456.066 292.286C456.066 293.171 455.17 293.88 454.078 293.88C452.985 293.88 452.09 293.162 452.09 292.286C452.09 291.4 452.985 290.691 454.078 290.691C455.17 290.691 456.066 291.409 456.066 292.286Z" fill="#FE9264"/>
<path d="M455.886 318.219C455.886 319.105 454.991 319.813 453.898 319.813C452.805 319.813 451.91 319.096 451.91 318.219C451.91 317.333 452.805 316.625 453.898 316.625C454.991 316.625 455.886 317.333 455.886 318.219Z" fill="#22223B"/>
<path d="M456.066 326.724C456.066 327.61 455.17 328.318 454.078 328.318C452.985 328.318 452.09 327.6 452.09 326.724C452.09 325.838 452.985 325.13 454.078 325.13C455.17 325.13 456.066 325.838 456.066 326.724Z" fill="#FE9264"/>
<path d="M455.886 335.429C455.886 336.315 454.991 337.023 453.898 337.023C452.805 337.023 451.91 336.306 451.91 335.429C451.91 334.544 452.805 333.835 453.898 333.835C454.991 333.835 455.886 334.553 455.886 335.429Z" fill="#22223B"/>
<path d="M456.066 352.548C456.066 353.434 455.17 354.142 454.078 354.142C452.985 354.142 452.09 353.425 452.09 352.548C452.09 351.663 452.985 350.954 454.078 350.954C455.17 350.954 456.066 351.672 456.066 352.548Z" fill="#FE9264"/>
<path d="M453.898 362.856C454.996 362.856 455.886 362.143 455.886 361.262C455.886 360.382 454.996 359.668 453.898 359.668C452.8 359.668 451.91 360.382 451.91 361.262C451.91 362.143 452.8 362.856 453.898 362.856Z" fill="#22223B"/>
<path d="M456.066 386.987C456.066 387.872 455.17 388.581 454.078 388.581C452.985 388.581 452.09 387.863 452.09 386.987C452.09 386.101 452.985 385.393 454.078 385.393C455.17 385.393 456.066 386.101 456.066 386.987Z" fill="#FE9264"/>
<path d="M453.898 405.899C454.996 405.899 455.886 405.186 455.886 404.305C455.886 403.425 454.996 402.711 453.898 402.711C452.8 402.711 451.91 403.425 451.91 404.305C451.91 405.186 452.8 405.899 453.898 405.899Z" fill="#22223B"/>
<path d="M456.066 412.911C456.066 413.796 455.17 414.505 454.078 414.505C452.985 414.505 452.09 413.787 452.09 412.911C452.09 412.025 452.985 411.316 454.078 411.316C455.17 411.316 456.066 412.025 456.066 412.911Z" fill="#FE9264"/>
<path d="M453.898 423.11C454.996 423.11 455.886 422.396 455.886 421.516C455.886 420.636 454.996 419.922 453.898 419.922C452.8 419.922 451.91 420.636 451.91 421.516C451.91 422.396 452.8 423.11 453.898 423.11Z" fill="#22223B"/>
<path d="M455.976 430.129C455.976 431.015 455.081 431.724 453.988 431.724C452.895 431.724 452 431.006 452 430.129C452 429.244 452.895 428.535 453.988 428.535C455.081 428.535 455.976 429.244 455.976 430.129Z" fill="#FE9264"/>
<path d="M455.886 438.735C455.886 439.621 454.991 440.329 453.898 440.329C452.805 440.329 451.91 439.611 451.91 438.735C451.91 437.849 452.805 437.141 453.898 437.141C454.991 437.141 455.886 437.859 455.886 438.735Z" fill="#22223B"/>
<path d="M455.886 447.349C455.886 448.235 454.991 448.943 453.898 448.943C452.805 448.943 451.91 448.225 451.91 447.349C451.91 446.463 452.805 445.755 453.898 445.755C454.991 445.755 455.886 446.463 455.886 447.349Z" fill="#FE9264"/>
<path d="M453.898 466.153C454.996 466.153 455.886 465.44 455.886 464.559C455.886 463.679 454.996 462.965 453.898 462.965C452.8 462.965 451.91 463.679 451.91 464.559C451.91 465.44 452.8 466.153 453.898 466.153Z" fill="#22223B"/>
<path d="M453.898 483.372C454.996 483.372 455.886 482.658 455.886 481.778C455.886 480.897 454.996 480.184 453.898 480.184C452.8 480.184 451.91 480.897 451.91 481.778C451.91 482.658 452.8 483.372 453.898 483.372Z" fill="#22223B"/>
<path d="M455.886 490.393C455.886 491.279 454.991 491.987 453.898 491.987C452.805 491.987 451.91 491.269 451.91 490.393C451.91 489.507 452.805 488.799 453.898 488.799C454.991 488.799 455.886 489.507 455.886 490.393Z" fill="#22223B"/>
<path d="M453.898 178.555V185.929" stroke="#22223B" strokeWidth="2" stroke-miterlimit="10" strokeLinecap="round" stroke-linejoin="round"/>
<path d="M509.895 507.789H496.828V172.252H509.895V180.689" stroke="#22223B" strokeWidth="2" stroke-miterlimit="10" strokeLinecap="round" stroke-linejoin="round"/>
<path d="M509.914 191.904H539.616V301.522H552.671V507.789H539.616H509.914" stroke="#22223B" strokeWidth="2" stroke-miterlimit="10" strokeLinecap="round" stroke-linejoin="round"/>
<path d="M523.015 119H519.98V155.872H523.015V119Z" fill="#327D99"/>
<path d="M509.918 177.369V179.709V191.903H539.875L509.918 177.369Z" stroke="#22223B" strokeWidth="2" stroke-miterlimit="10" strokeLinecap="round" stroke-linejoin="round"/>
<path d="M521.496 120.352V183.103" stroke="#22223B" strokeWidth="2" stroke-miterlimit="10" strokeLinecap="round" stroke-linejoin="round"/>
<path d="M514 197V204.384" stroke="#FE9264" strokeWidth="2" stroke-miterlimit="10" strokeLinecap="round" stroke-linejoin="round"/>
<path d="M514 229.434V236.817" stroke="#FE9264" strokeWidth="2" stroke-miterlimit="10" strokeLinecap="round" stroke-linejoin="round"/>
<path d="M514 245.492V252.867" stroke="#22223B" strokeWidth="2" stroke-miterlimit="10" strokeLinecap="round" stroke-linejoin="round"/>
<path d="M514 261.868V269.252" stroke="#FE9264" strokeWidth="2" stroke-miterlimit="10" strokeLinecap="round" stroke-linejoin="round"/>
<path d="M514 277.926V285.3" stroke="#22223B" strokeWidth="2" stroke-miterlimit="10" strokeLinecap="round" stroke-linejoin="round"/>
<path d="M514 294.139V301.513" stroke="#22223B" strokeWidth="2" stroke-miterlimit="10" strokeLinecap="round" stroke-linejoin="round"/>
<path d="M514 310.514V317.897" stroke="#FE9264" strokeWidth="2" stroke-miterlimit="10" strokeLinecap="round" stroke-linejoin="round"/>
<path d="M514 326.572V333.947" stroke="#22223B" strokeWidth="2" stroke-miterlimit="10" strokeLinecap="round" stroke-linejoin="round"/>
<path d="M514 359.17V366.544" stroke="#FE9264" strokeWidth="2" stroke-miterlimit="10" strokeLinecap="round" stroke-linejoin="round"/>
<path d="M514 391.44V398.815" stroke="#22223B" strokeWidth="2" stroke-miterlimit="10" strokeLinecap="round" stroke-linejoin="round"/>
<path d="M514 407.816V415.191" stroke="#FE9264" strokeWidth="2" stroke-miterlimit="10" strokeLinecap="round" stroke-linejoin="round"/>
<path d="M514 440.086V447.46" stroke="#22223B" strokeWidth="2" stroke-miterlimit="10" strokeLinecap="round" stroke-linejoin="round"/>
<path d="M514 456.299V463.683" stroke="#FE9264" strokeWidth="2" stroke-miterlimit="10" strokeLinecap="round" stroke-linejoin="round"/>
<path d="M514 472.521V479.895" stroke="#22223B" strokeWidth="2" stroke-miterlimit="10" strokeLinecap="round" stroke-linejoin="round"/>
<path d="M514 488.732V496.116" stroke="#FE9264" strokeWidth="2" stroke-miterlimit="10" strokeLinecap="round" stroke-linejoin="round"/>
<path d="M522.914 213.058V220.432" stroke="#22223B" strokeWidth="2" stroke-miterlimit="10" strokeLinecap="round" stroke-linejoin="round"/>
<path d="M522.914 229.27V236.653" stroke="#22223B" strokeWidth="2" stroke-miterlimit="10" strokeLinecap="round" stroke-linejoin="round"/>
<path d="M522.914 277.926V285.3" stroke="#22223B" strokeWidth="2" stroke-miterlimit="10" strokeLinecap="round" stroke-linejoin="round"/>
<path d="M522.914 310.35V317.733" stroke="#22223B" strokeWidth="2" stroke-miterlimit="10" strokeLinecap="round" stroke-linejoin="round"/>
<path d="M522.914 326.572V333.947" stroke="#22223B" strokeWidth="2" stroke-miterlimit="10" strokeLinecap="round" stroke-linejoin="round"/>
<path d="M522.914 342.784V350.168" stroke="#22223B" strokeWidth="2" stroke-miterlimit="10" strokeLinecap="round" stroke-linejoin="round"/>
<path d="M522.914 391.604V398.979" stroke="#FE9264" strokeWidth="2" stroke-miterlimit="10" strokeLinecap="round" stroke-linejoin="round"/>
<path d="M522.914 407.652V415.027" stroke="#22223B" strokeWidth="2" stroke-miterlimit="10" strokeLinecap="round" stroke-linejoin="round"/>
<path d="M522.914 423.865V431.249" stroke="#22223B" strokeWidth="2" stroke-miterlimit="10" strokeLinecap="round" stroke-linejoin="round"/>
<path d="M522.914 456.299V463.683" stroke="#22223B" strokeWidth="2" stroke-miterlimit="10" strokeLinecap="round" stroke-linejoin="round"/>
<path d="M522.914 488.732V496.116" stroke="#22223B" strokeWidth="2" stroke-miterlimit="10" strokeLinecap="round" stroke-linejoin="round"/>
<path d="M531.836 196.836V204.22" stroke="#22223B" strokeWidth="2" stroke-miterlimit="10" strokeLinecap="round" stroke-linejoin="round"/>
<path d="M531.836 213.222V220.596" stroke="#FE9264" strokeWidth="2" stroke-miterlimit="10" strokeLinecap="round" stroke-linejoin="round"/>
<path d="M531.836 245.656V253.031" stroke="#FE9264" strokeWidth="2" stroke-miterlimit="10" strokeLinecap="round" stroke-linejoin="round"/>
<path d="M531.836 261.704V269.088" stroke="#22223B" strokeWidth="2" stroke-miterlimit="10" strokeLinecap="round" stroke-linejoin="round"/>
<path d="M531.836 278.09V285.464" stroke="#FE9264" strokeWidth="2" stroke-miterlimit="10" strokeLinecap="round" stroke-linejoin="round"/>
<path d="M531.836 294.139V301.513" stroke="#22223B" strokeWidth="2" stroke-miterlimit="10" strokeLinecap="round" stroke-linejoin="round"/>
<path d="M531.836 310.35V317.733" stroke="#22223B" strokeWidth="2" stroke-miterlimit="10" strokeLinecap="round" stroke-linejoin="round"/>
<path d="M531.836 342.948V350.332" stroke="#FE9264" strokeWidth="2" stroke-miterlimit="10" strokeLinecap="round" stroke-linejoin="round"/>
<path d="M531.836 359.006V366.38" stroke="#22223B" strokeWidth="2" stroke-miterlimit="10" strokeLinecap="round" stroke-linejoin="round"/>
<path d="M531.836 375.383V382.766" stroke="#FE9264" strokeWidth="2" stroke-miterlimit="10" strokeLinecap="round" stroke-linejoin="round"/>
<path d="M531.836 407.652V415.027" stroke="#22223B" strokeWidth="2" stroke-miterlimit="10" strokeLinecap="round" stroke-linejoin="round"/>
<path d="M531.836 424.029V431.413" stroke="#FE9264" strokeWidth="2" stroke-miterlimit="10" strokeLinecap="round" stroke-linejoin="round"/>
<path d="M531.836 440.086V447.46" stroke="#22223B" strokeWidth="2" stroke-miterlimit="10" strokeLinecap="round" stroke-linejoin="round"/>
<path d="M531.836 456.299V463.683" stroke="#22223B" strokeWidth="2" stroke-miterlimit="10" strokeLinecap="round" stroke-linejoin="round"/>
<path d="M531.836 472.521V479.895" stroke="#FE9264" strokeWidth="2" stroke-miterlimit="10" strokeLinecap="round" stroke-linejoin="round"/>
<path d="M541.035 309.604C541.035 310.49 541.93 311.198 543.023 311.198C544.127 311.198 545.011 310.48 545.011 309.604C545.011 308.718 544.116 308.01 543.023 308.01C541.93 308.01 541.035 308.728 541.035 309.604Z" fill="#22223B"/>
<path d="M541.035 318.217C541.035 319.103 541.93 319.812 543.023 319.812C544.127 319.812 545.011 319.094 545.011 318.217C545.011 317.332 544.116 316.623 543.023 316.623C541.93 316.614 541.035 317.332 541.035 318.217Z" fill="#22223B"/>
<path d="M541.035 335.428C541.035 336.314 541.93 337.022 543.023 337.022C544.127 337.022 545.011 336.305 545.011 335.428C545.011 334.543 544.116 333.834 543.023 333.834C541.93 333.834 541.035 334.552 541.035 335.428Z" fill="#22223B"/>
<path d="M541.035 344.042C541.035 344.928 541.93 345.637 543.023 345.637C544.127 345.637 545.011 344.919 545.011 344.042C545.011 343.166 544.116 342.448 543.023 342.448C541.93 342.448 541.035 343.157 541.035 344.042Z" fill="#22223B"/>
<path d="M541.035 369.867C541.035 370.752 541.93 371.461 543.023 371.461C544.127 371.461 545.011 370.743 545.011 369.867C545.011 368.981 544.116 368.272 543.023 368.272C541.93 368.272 541.035 368.981 541.035 369.867Z" fill="#22223B"/>
<path d="M541.035 387.085C541.035 387.971 541.93 388.68 543.023 388.68C544.127 388.68 545.011 387.962 545.011 387.085C545.011 386.2 544.116 385.491 543.023 385.491C541.93 385.491 541.035 386.2 541.035 387.085Z" fill="#22223B"/>
<path d="M541.035 404.305C541.035 405.191 541.93 405.899 543.023 405.899C544.127 405.899 545.011 405.182 545.011 404.305C545.011 403.42 544.116 402.711 543.023 402.711C541.93 402.702 541.035 403.42 541.035 404.305Z" fill="#22223B"/>
<path d="M541.035 412.911C541.035 413.796 541.93 414.505 543.023 414.505C544.127 414.505 545.011 413.787 545.011 412.911C545.011 412.025 544.116 411.316 543.023 411.316C541.93 411.316 541.035 412.025 541.035 412.911Z" fill="#22223B"/>
<path d="M541.035 430.129C541.035 431.015 541.93 431.724 543.023 431.724C544.127 431.724 545.011 431.006 545.011 430.129C545.011 429.244 544.116 428.535 543.023 428.535C541.93 428.535 541.035 429.244 541.035 430.129Z" fill="#22223B"/>
<path d="M541.035 438.734C541.035 439.62 541.93 440.328 543.023 440.328C544.127 440.328 545.011 439.61 545.011 438.734C545.011 437.848 544.116 437.14 543.023 437.14C541.93 437.14 541.035 437.858 541.035 438.734Z" fill="#22223B"/>
<path d="M541.035 455.954C541.035 456.839 541.93 457.548 543.023 457.548C544.127 457.548 545.011 456.83 545.011 455.954C545.011 455.068 544.116 454.359 543.023 454.359C541.93 454.359 541.035 455.068 541.035 455.954Z" fill="#22223B"/>
<path d="M541.035 464.558C541.035 465.444 541.93 466.152 543.023 466.152C544.127 466.152 545.011 465.434 545.011 464.558C545.011 463.672 544.116 462.964 543.023 462.964C541.93 462.964 541.035 463.682 541.035 464.558Z" fill="#22223B"/>
<path d="M541.035 490.391C541.035 491.277 541.93 491.985 543.023 491.985C544.127 491.985 545.011 491.267 545.011 490.391C545.011 489.505 544.116 488.797 543.023 488.797C541.93 488.788 541.035 489.505 541.035 490.391Z" fill="#22223B"/>
<path d="M501.836 197.694C501.836 198.579 502.731 199.288 503.824 199.288C504.928 199.288 505.812 198.57 505.812 197.694C505.812 196.808 504.917 196.1 503.824 196.1C502.731 196.1 501.836 196.808 501.836 197.694Z" fill="#22223B"/>
<path d="M501.836 206.299C501.836 207.185 502.731 207.893 503.824 207.893C504.928 207.893 505.812 207.176 505.812 206.299C505.812 205.414 504.917 204.705 503.824 204.705C502.731 204.705 501.836 205.423 501.836 206.299Z" fill="#22223B"/>
<path d="M501.836 214.913C501.836 215.798 502.731 216.507 503.824 216.507C504.928 216.507 505.812 215.789 505.812 214.913C505.812 214.027 504.917 213.318 503.824 213.318C502.731 213.309 501.836 214.027 501.836 214.913Z" fill="#22223B"/>
<path d="M501.836 232.132C501.836 233.018 502.731 233.727 503.824 233.727C504.928 233.727 505.812 233.009 505.812 232.132C505.812 231.247 504.917 230.538 503.824 230.538C502.731 230.529 501.836 231.247 501.836 232.132Z" fill="#22223B"/>
<path d="M501.836 240.737C501.836 241.622 502.731 242.331 503.824 242.331C504.928 242.331 505.812 241.613 505.812 240.737C505.812 239.86 504.917 239.143 503.824 239.143C502.731 239.143 501.836 239.851 501.836 240.737Z" fill="#22223B"/>
<path d="M501.836 257.957C501.836 258.842 502.731 259.551 503.824 259.551C504.928 259.551 505.812 258.833 505.812 257.957C505.812 257.071 504.917 256.362 503.824 256.362C502.731 256.353 501.836 257.071 501.836 257.957Z" fill="#22223B"/>
<path d="M501.836 275.175C501.836 276.061 502.731 276.77 503.824 276.77C504.928 276.77 505.812 276.052 505.812 275.175C505.812 274.29 504.917 273.581 503.824 273.581C502.731 273.572 501.836 274.29 501.836 275.175Z" fill="#22223B"/>
<path d="M501.836 292.385C501.836 293.271 502.731 293.979 503.824 293.979C504.928 293.979 505.812 293.262 505.812 292.385C505.812 291.5 504.917 290.791 503.824 290.791C502.731 290.791 501.836 291.509 501.836 292.385Z" fill="#22223B"/>
<path d="M501.836 309.605C501.836 310.491 502.731 311.199 503.824 311.199C504.928 311.199 505.812 310.481 505.812 309.605C505.812 308.719 504.917 308.011 503.824 308.011C502.731 308.011 501.836 308.729 501.836 309.605Z" fill="#22223B"/>
<path d="M501.836 318.219C501.836 319.105 502.731 319.813 503.824 319.813C504.928 319.813 505.812 319.096 505.812 318.219C505.812 317.334 504.917 316.625 503.824 316.625C502.731 316.616 501.836 317.334 501.836 318.219Z" fill="#22223B"/>
<path d="M501.836 326.824C501.836 327.709 502.731 328.418 503.824 328.418C504.928 328.418 505.812 327.7 505.812 326.824C505.812 325.938 504.917 325.229 503.824 325.229C502.731 325.229 501.836 325.938 501.836 326.824Z" fill="#22223B"/>
<path d="M501.836 352.648C501.836 353.534 502.731 354.242 503.824 354.242C504.928 354.242 505.812 353.524 505.812 352.648C505.812 351.762 504.917 351.054 503.824 351.054C502.731 351.054 501.836 351.772 501.836 352.648Z" fill="#22223B"/>
<path d="M501.836 361.262C501.836 362.148 502.731 362.856 503.824 362.856C504.928 362.856 505.812 362.139 505.812 361.262C505.812 360.377 504.917 359.668 503.824 359.668C502.731 359.659 501.836 360.377 501.836 361.262Z" fill="#22223B"/>
<path d="M501.836 369.868C501.836 370.753 502.731 371.462 503.824 371.462C504.928 371.462 505.812 370.744 505.812 369.868C505.812 368.982 504.917 368.273 503.824 368.273C502.731 368.273 501.836 368.982 501.836 369.868Z" fill="#22223B"/>
<path d="M501.836 378.472C501.836 379.358 502.731 380.066 503.824 380.066C504.928 380.066 505.812 379.348 505.812 378.472C505.812 377.586 504.917 376.878 503.824 376.878C502.731 376.878 501.836 377.596 501.836 378.472Z" fill="#22223B"/>
<path d="M501.836 395.692C501.836 396.578 502.731 397.286 503.824 397.286C504.928 397.286 505.812 396.568 505.812 395.692C505.812 394.806 504.917 394.098 503.824 394.098C502.731 394.098 501.836 394.816 501.836 395.692Z" fill="#22223B"/>
<path d="M501.836 404.305C501.836 405.191 502.731 405.899 503.824 405.899C504.928 405.899 505.812 405.182 505.812 404.305C505.812 403.42 504.917 402.711 503.824 402.711C502.731 402.702 501.836 403.42 501.836 404.305Z" fill="#22223B"/>
<path d="M501.836 412.911C501.836 413.796 502.731 414.505 503.824 414.505C504.928 414.505 505.812 413.787 505.812 412.911C505.812 412.025 504.917 411.316 503.824 411.316C502.731 411.316 501.836 412.025 501.836 412.911Z" fill="#22223B"/>
<path d="M501.836 430.129C501.836 431.015 502.731 431.724 503.824 431.724C504.928 431.724 505.812 431.006 505.812 430.129C505.812 429.244 504.917 428.535 503.824 428.535C502.731 428.535 501.836 429.244 501.836 430.129Z" fill="#22223B"/>
<path d="M501.836 438.735C501.836 439.621 502.731 440.329 503.824 440.329C504.928 440.329 505.812 439.611 505.812 438.735C505.812 437.849 504.917 437.141 503.824 437.141C502.731 437.141 501.836 437.859 501.836 438.735Z" fill="#22223B"/>
<path d="M501.836 447.349C501.836 448.235 502.731 448.943 503.824 448.943C504.928 448.943 505.812 448.226 505.812 447.349C505.812 446.464 504.917 445.755 503.824 445.755C502.731 445.746 501.836 446.464 501.836 447.349Z" fill="#22223B"/>
<path d="M501.836 464.559C501.836 465.445 502.731 466.153 503.824 466.153C504.928 466.153 505.812 465.435 505.812 464.559C505.812 463.673 504.917 462.965 503.824 462.965C502.731 462.965 501.836 463.683 501.836 464.559Z" fill="#22223B"/>
<path d="M501.836 481.778C501.836 482.663 502.731 483.372 503.824 483.372C504.928 483.372 505.812 482.654 505.812 481.778C505.812 480.901 504.917 480.184 503.824 480.184C502.731 480.184 501.836 480.901 501.836 481.778Z" fill="#22223B"/>
<path d="M501.836 490.393C501.836 491.279 502.731 491.987 503.824 491.987C504.928 491.987 505.812 491.269 505.812 490.393C505.812 489.507 504.917 488.799 503.824 488.799C502.731 488.79 501.836 489.507 501.836 490.393Z" fill="#22223B"/>
<path d="M503.828 178.555V185.929" stroke="#22223B" strokeWidth="2" stroke-miterlimit="10" strokeLinecap="round" stroke-linejoin="round"/>
<path d="M685 508.339H-764" stroke="#22223B" strokeWidth="2" stroke-miterlimit="10" strokeLinecap="round" stroke-linejoin="round"/>
<path d="M659.124 143.071H570.949V508.273H659.124V143.071Z" stroke="#22223B" strokeWidth="2" stroke-miterlimit="10" strokeLinecap="round" stroke-linejoin="round"/>
<path d="M582.387 322.646V508.273" stroke="#22223B" strokeWidth="2" stroke-miterlimit="10" strokeLinecap="round" stroke-linejoin="round"/>
<path d="M582.387 152.328V162.555V174.572V309.408" stroke="#22223B" strokeWidth="2" stroke-miterlimit="10" strokeLinecap="round" stroke-linejoin="round"/>
<path d="M591.73 441.633V450.294V486.233V508.272" stroke="#22223B" strokeWidth="2" stroke-miterlimit="10" strokeLinecap="round" stroke-linejoin="round"/>
<path d="M591.73 420.555V430.241" stroke="#22223B" strokeWidth="2" stroke-miterlimit="10" strokeLinecap="round" stroke-linejoin="round"/>
<path d="M591.73 286.445V351.453V382.629" stroke="#22223B" strokeWidth="2" stroke-miterlimit="10" strokeLinecap="round" stroke-linejoin="round"/>
<path d="M591.73 239.98V273.468" stroke="#22223B" strokeWidth="2" stroke-miterlimit="10" strokeLinecap="round" stroke-linejoin="round"/>
<path d="M591.73 203.613V226.874" stroke="#22223B" strokeWidth="2" stroke-miterlimit="10" strokeLinecap="round" stroke-linejoin="round"/>
<path d="M591.73 152.328V191.67" stroke="#22223B" strokeWidth="2" stroke-miterlimit="10" strokeLinecap="round" stroke-linejoin="round"/>
<path d="M601.078 491.613V508.273" stroke="#22223B" strokeWidth="2" stroke-miterlimit="10" strokeLinecap="round" stroke-linejoin="round"/>
<path d="M601.078 373.959V478.001" stroke="#22223B" strokeWidth="2" stroke-miterlimit="10" strokeLinecap="round" stroke-linejoin="round"/>
<path d="M601.078 305.186V359.799" stroke="#22223B" strokeWidth="2" stroke-miterlimit="10" strokeLinecap="round" stroke-linejoin="round"/>
<path d="M601.078 192.519V289.569" stroke="#22223B" strokeWidth="2" stroke-miterlimit="10" strokeLinecap="round" stroke-linejoin="round"/>
<path d="M601.078 152.328V169.818" stroke="#22223B" strokeWidth="2" stroke-miterlimit="10" strokeLinecap="round" stroke-linejoin="round"/>
<path d="M610.426 474.953V508.273" stroke="#22223B" strokeWidth="2" stroke-miterlimit="10" strokeLinecap="round" stroke-linejoin="round"/>
<path d="M610.426 441.633V455.906" stroke="#22223B" strokeWidth="2" stroke-miterlimit="10" strokeLinecap="round" stroke-linejoin="round"/>
<path d="M610.426 369.176V422.502" stroke="#22223B" strokeWidth="2" stroke-miterlimit="10" strokeLinecap="round" stroke-linejoin="round"/>
<path d="M610.426 254.301V346.643" stroke="#22223B" strokeWidth="2" stroke-miterlimit="10" strokeLinecap="round" stroke-linejoin="round"/>
<path d="M610.426 186.664V236.867" stroke="#22223B" strokeWidth="2" stroke-miterlimit="10" strokeLinecap="round" stroke-linejoin="round"/>
<path d="M610.426 152.328V176.222" stroke="#22223B" strokeWidth="2" stroke-miterlimit="10" strokeLinecap="round" stroke-linejoin="round"/>
<path d="M619.773 484.416V508.273" stroke="#22223B" strokeWidth="2" stroke-miterlimit="10" strokeLinecap="round" stroke-linejoin="round"/>
<path d="M619.773 328.361V453.995" stroke="#22223B" strokeWidth="2" stroke-miterlimit="10" strokeLinecap="round" stroke-linejoin="round"/>
<path d="M619.773 223.145V313.119" stroke="#22223B" strokeWidth="2" stroke-miterlimit="10" strokeLinecap="round" stroke-linejoin="round"/>
<path d="M619.773 152.328V208.274" stroke="#22223B" strokeWidth="2" stroke-miterlimit="10" strokeLinecap="round" stroke-linejoin="round"/>
<path d="M629.117 439.377V508.272" stroke="#22223B" strokeWidth="2" stroke-miterlimit="10" strokeLinecap="round" stroke-linejoin="round"/>
<path d="M629.117 398.375V427.537" stroke="#22223B" strokeWidth="2" stroke-miterlimit="10" strokeLinecap="round" stroke-linejoin="round"/>
<path d="M629.117 341.86V386.796" stroke="#22223B" strokeWidth="2" stroke-miterlimit="10" strokeLinecap="round" stroke-linejoin="round"/>
<path d="M629.117 293.168V331.727" stroke="#22223B" strokeWidth="2" stroke-miterlimit="10" strokeLinecap="round" stroke-linejoin="round"/>
<path d="M629.117 225.092V278.884" stroke="#22223B" strokeWidth="2" stroke-miterlimit="10" strokeLinecap="round" stroke-linejoin="round"/>
<path d="M629.117 193.88V214.148" stroke="#22223B" strokeWidth="2" stroke-miterlimit="10" strokeLinecap="round" stroke-linejoin="round"/>
<path d="M629.117 152.328V180.66" stroke="#22223B" strokeWidth="2" stroke-miterlimit="10" strokeLinecap="round" stroke-linejoin="round"/>
<path d="M638.48 466.936V508.273" stroke="#22223B" strokeWidth="2" stroke-miterlimit="10" strokeLinecap="round" stroke-linejoin="round"/>
<path d="M638.48 369.979V447.171" stroke="#22223B" strokeWidth="2" stroke-miterlimit="10" strokeLinecap="round" stroke-linejoin="round"/>
<path d="M638.48 318.898V357.83" stroke="#22223B" strokeWidth="2" stroke-miterlimit="10" strokeLinecap="round" stroke-linejoin="round"/>
<path d="M638.48 250.012V301.567" stroke="#22223B" strokeWidth="2" stroke-miterlimit="10" strokeLinecap="round" stroke-linejoin="round"/>
<path d="M638.48 176.223V233.11" stroke="#22223B" strokeWidth="2" stroke-miterlimit="10" strokeLinecap="round" stroke-linejoin="round"/>
<path d="M638.48 152.328V162.956" stroke="#22223B" strokeWidth="2" stroke-miterlimit="10" strokeLinecap="round" stroke-linejoin="round"/>
<path d="M647.82 427.537V508.273" stroke="#22223B" strokeWidth="2" stroke-miterlimit="10" strokeLinecap="round" stroke-linejoin="round"/>
<path d="M647.82 346.644V415.455" stroke="#22223B" strokeWidth="2" stroke-miterlimit="10" strokeLinecap="round" stroke-linejoin="round"/>
<path d="M647.82 212.273V331.111" stroke="#22223B" strokeWidth="2" stroke-miterlimit="10" strokeLinecap="round" stroke-linejoin="round"/>
<path d="M647.82 152.328V198.075" stroke="#22223B" strokeWidth="2" stroke-miterlimit="10" strokeLinecap="round" stroke-linejoin="round"/>
<path d="M271.467 493.925C271.56 493.385 271.618 492.853 271.641 492.35C271.641 492.331 271.641 492.303 271.641 492.284C271.688 491.557 271.676 490.877 271.641 490.243C271.502 488.015 270.967 486.514 270.967 486.514C259.528 452.495 214.388 448.085 199.009 447.582C199.009 447.554 198.997 447.544 198.997 447.544C198.997 447.544 198.137 447.516 196.614 447.526C196.567 447.526 196.532 447.526 196.486 447.526C194.8 447.507 193.847 447.544 193.847 447.544C193.847 447.544 193.847 447.554 193.835 447.582C178.467 448.085 133.328 452.495 121.889 486.514C121.889 486.514 121.273 488.257 121.191 490.765C121.191 490.83 121.191 490.905 121.18 490.979C121.18 491.278 121.191 491.604 121.203 491.93C121.203 492.079 121.203 492.219 121.215 492.368C121.249 492.9 121.308 493.441 121.401 494.009C121.877 496.843 123.249 500.022 126.492 502.726C129.468 505.197 134.025 507.266 140.93 508.273C140.93 508.273 152.009 508.087 161.483 503.546C162.018 503.295 162.564 503.024 163.134 502.754C163.378 502.642 163.622 502.521 163.878 502.409C164.227 502.251 164.564 502.083 164.924 501.924C165.192 501.794 165.482 501.673 165.75 501.542C166.098 501.384 166.447 501.216 166.808 501.057C167.098 500.927 167.389 500.796 167.679 500.666C168.04 500.498 168.412 500.339 168.784 500.172C169.086 500.041 169.388 499.911 169.679 499.78C170.062 499.612 170.435 499.444 170.818 499.286C171.12 499.155 171.434 499.025 171.736 498.894C172.132 498.727 172.527 498.559 172.922 498.4C173.236 498.27 173.538 498.149 173.852 498.018C174.259 497.85 174.666 497.692 175.073 497.533C175.387 497.412 175.701 497.282 176.026 497.16C176.433 497.002 176.851 496.843 177.258 496.694C177.572 496.573 177.898 496.452 178.223 496.34C178.642 496.191 179.049 496.042 179.467 495.892C179.781 495.781 180.106 495.669 180.42 495.557C180.839 495.417 181.257 495.277 181.676 495.147C181.99 495.044 182.315 494.941 182.629 494.839C183.048 494.708 183.466 494.587 183.896 494.457C184.21 494.363 184.524 494.27 184.826 494.186C185.256 494.065 185.675 493.953 186.093 493.851C186.395 493.776 186.698 493.692 187 493.618C187.43 493.515 187.86 493.422 188.29 493.329C188.569 493.263 188.86 493.198 189.139 493.142C189.604 493.049 190.069 492.965 190.522 492.89C190.755 492.853 190.999 492.797 191.231 492.769C191.917 492.667 192.58 492.573 193.243 492.508C193.277 492.508 193.312 492.499 193.347 492.499C193.987 492.434 194.614 492.396 195.23 492.368C195.242 492.368 195.242 492.368 195.254 492.368C195.265 492.368 195.277 492.368 195.289 492.368H195.3C195.358 492.378 195.416 492.368 195.475 492.368C195.544 492.368 195.614 492.378 195.684 492.368C195.928 492.359 196.16 492.35 196.405 492.35C196.649 492.35 196.893 492.359 197.137 492.368C197.207 492.368 197.265 492.368 197.323 492.368C197.393 492.368 197.462 492.368 197.521 492.368H197.532C198.218 492.387 198.916 492.443 199.625 492.518C200.194 492.573 200.764 492.648 201.345 492.741C201.415 492.751 201.485 492.76 201.566 492.769C202.205 492.872 202.856 492.984 203.519 493.114C203.531 493.114 203.554 493.124 203.566 493.124C213.075 495.025 224.025 500.078 231.337 503.584C240.8 508.124 251.89 508.31 251.89 508.31C252.681 508.199 253.425 508.059 254.146 507.919C254.285 507.891 254.413 507.863 254.552 507.835C256.006 507.537 257.342 507.192 258.563 506.8C258.644 506.772 258.726 506.744 258.807 506.716C260.039 506.306 261.167 505.859 262.178 505.364C262.225 505.346 262.271 505.318 262.329 505.299C263.352 504.796 264.271 504.255 265.096 503.686C265.119 503.668 265.143 503.658 265.166 503.64C269.258 500.768 270.897 497.179 271.432 494.028C271.432 494.028 271.432 494.028 271.432 494.037C271.455 493.981 271.455 493.953 271.467 493.925Z" stroke="#22223B" strokeWidth="2" stroke-miterlimit="10" strokeLinecap="round" stroke-linejoin="round"/>
<mask id="mask0_0_44849" style="mask-type:luminance" maskUnits="userSpaceOnUse" x="308" y="145" width="89" height="376">
<path d="M396.452 145.682V520.337H308.254V513.867H332.55C336.398 513.867 339.525 511.359 339.525 508.273V363.005L339.444 362.744C339.362 362.343 339.234 361.943 339.048 361.551C338.92 361.309 338.793 361.094 338.688 360.954C338.56 360.74 338.362 360.46 338.06 360.153L308.254 329.397V145.682H396.452Z" fill="white"/>
</mask>
<g mask="url(#mask0_0_44849)">
<path d="M354.805 186.16L389.714 221.689V237.324" stroke="#22223B" strokeWidth="2" stroke-miterlimit="10" strokeLinecap="round" stroke-linejoin="round"/>
<path d="M354.808 186.16L319.898 221.689V237.324" stroke="#22223B" strokeWidth="2" stroke-miterlimit="10" strokeLinecap="round" stroke-linejoin="round"/>
<path d="M389.718 262.542V234.275L387.091 230.658L383.336 225.465L379.616 220.338L375.838 215.145L372.129 210.017L368.363 204.834L364.655 199.706L360.876 194.513L354.808 186.16L348.752 194.513L344.974 199.706L341.265 204.834L337.499 210.017L333.779 215.145L330.012 220.338L326.292 225.465L322.537 230.658L319.91 234.275V262.542" stroke="#22223B" strokeWidth="2" stroke-miterlimit="10" strokeLinecap="round" stroke-linejoin="round"/>
<path d="M347.664 229.996L348.71 223.582L349.768 217.075L350.838 210.567L351.907 204.051L352.965 197.543L354.813 186.16L356.673 197.543L357.731 204.051L358.801 210.567L359.859 217.075L360.916 223.582L361.963 229.996" stroke="#22223B" strokeWidth="2" stroke-miterlimit="10" strokeLinecap="round" stroke-linejoin="round"/>
<path d="M389.718 310.937V260.388V260.379V260.165H389.52L380.034 249.639L374.152 243.123L368.27 236.615L362.399 230.108L362.062 229.726L356.517 223.582L354.808 221.689L353.111 223.582L347.566 229.726L347.229 230.108L341.346 236.615L335.476 243.123L329.594 249.639L320.108 260.165H319.898V310.937" stroke="#22223B" strokeWidth="2" stroke-miterlimit="10" strokeLinecap="round" stroke-linejoin="round"/>
<path d="M389.718 358.223V310.938L354.808 273.283L319.898 310.938V358.223" stroke="#22223B" strokeWidth="2" stroke-miterlimit="10" strokeLinecap="round" stroke-linejoin="round"/>
<path d="M354.808 320.568L319.898 358.223V508.274H389.718V358.223L354.808 320.568Z" stroke="#22223B" strokeWidth="2" stroke-miterlimit="10" strokeLinecap="round" stroke-linejoin="round"/>
<path d="M362.067 229.511V508.272H347.57V229.511L354.813 221.689L362.067 229.511Z" stroke="#22223B" strokeWidth="2" stroke-miterlimit="10" strokeLinecap="round" stroke-linejoin="round"/>
<path d="M354.812 163.516V194.812" stroke="#22223B" strokeWidth="2" stroke-miterlimit="10" strokeLinecap="round" stroke-linejoin="round"/>
<path d="M352.956 197.543H346.551" stroke="#22223B" strokeWidth="2" stroke-miterlimit="10" strokeLinecap="round" stroke-linejoin="round"/>
<path d="M363.065 197.543H356.66" stroke="#22223B" strokeWidth="2" stroke-miterlimit="10" strokeLinecap="round" stroke-linejoin="round"/>
<path d="M367.79 204.051H357.723" stroke="#22223B" strokeWidth="2" stroke-miterlimit="10" strokeLinecap="round" stroke-linejoin="round"/>
<path d="M351.899 204.051H341.832" stroke="#22223B" strokeWidth="2" stroke-miterlimit="10" strokeLinecap="round" stroke-linejoin="round"/>
<path d="M350.831 210.567H337.102" stroke="#22223B" strokeWidth="2" stroke-miterlimit="10" strokeLinecap="round" stroke-linejoin="round"/>
<path d="M372.506 210.567H358.789" stroke="#22223B" strokeWidth="2" stroke-miterlimit="10" strokeLinecap="round" stroke-linejoin="round"/>
<path d="M349.758 217.074H332.379" stroke="#22223B" strokeWidth="2" stroke-miterlimit="10" strokeLinecap="round" stroke-linejoin="round"/>
<path d="M377.238 217.074H359.848" stroke="#22223B" strokeWidth="2" stroke-miterlimit="10" strokeLinecap="round" stroke-linejoin="round"/>
<path d="M381.959 223.582H360.906" stroke="#22223B" strokeWidth="2" stroke-miterlimit="10" strokeLinecap="round" stroke-linejoin="round"/>
<path d="M348.697 223.582H327.645" stroke="#22223B" strokeWidth="2" stroke-miterlimit="10" strokeLinecap="round" stroke-linejoin="round"/>
<path d="M347.222 230.107H322.926" stroke="#22223B" strokeWidth="2" stroke-miterlimit="10" strokeLinecap="round" stroke-linejoin="round"/>
<path d="M386.694 230.107H362.398" stroke="#22223B" strokeWidth="2" stroke-miterlimit="10" strokeLinecap="round" stroke-linejoin="round"/>
<path d="M341.343 236.615H319.906" stroke="#22223B" strokeWidth="2" stroke-miterlimit="10" strokeLinecap="round" stroke-linejoin="round"/>
<path d="M389.876 236.615H368.266" stroke="#22223B" strokeWidth="2" stroke-miterlimit="10" strokeLinecap="round" stroke-linejoin="round"/>
<path d="M389.877 243.122H374.148" stroke="#22223B" strokeWidth="2" stroke-miterlimit="10" strokeLinecap="round" stroke-linejoin="round"/>
<path d="M335.472 243.122H319.906" stroke="#22223B" strokeWidth="2" stroke-miterlimit="10" strokeLinecap="round" stroke-linejoin="round"/>
<path d="M389.878 249.639H380.031" stroke="#22223B" strokeWidth="2" stroke-miterlimit="10" strokeLinecap="round" stroke-linejoin="round"/>
<path d="M329.59 249.639H319.906" stroke="#22223B" strokeWidth="2" stroke-miterlimit="10" strokeLinecap="round" stroke-linejoin="round"/>
<path d="M344.546 248.503C344.546 249.295 343.743 249.929 342.767 249.929C341.779 249.929 340.988 249.286 340.988 248.503C340.988 247.71 341.79 247.076 342.767 247.076C343.743 247.067 344.546 247.71 344.546 248.503Z" fill="#22223B"/>
<path d="M344.546 276.359C344.546 277.152 343.743 277.785 342.767 277.785C341.779 277.785 340.988 277.142 340.988 276.359C340.988 275.576 341.79 274.933 342.767 274.933C343.743 274.923 344.546 275.567 344.546 276.359Z" fill="#22223B"/>
<path d="M344.546 294.92C344.546 295.713 343.743 296.347 342.767 296.347C341.779 296.347 340.988 295.704 340.988 294.92C340.988 294.128 341.79 293.494 342.767 293.494C343.743 293.494 344.546 294.137 344.546 294.92Z" fill="#22223B"/>
<path d="M344.546 313.492C344.546 314.284 343.743 314.918 342.767 314.918C341.779 314.918 340.988 314.275 340.988 313.492C340.988 312.709 341.79 312.065 342.767 312.065C343.743 312.065 344.546 312.709 344.546 313.492Z" fill="#22223B"/>
<path d="M344.546 322.777C344.546 323.569 343.743 324.203 342.767 324.203C341.779 324.203 340.988 323.56 340.988 322.777C340.988 321.985 341.79 321.351 342.767 321.351C343.743 321.351 344.546 321.985 344.546 322.777Z" fill="#22223B"/>
<path d="M344.546 341.348C344.546 342.141 343.743 342.775 342.767 342.775C341.779 342.775 340.988 342.132 340.988 341.348C340.988 340.556 341.79 339.922 342.767 339.922C343.743 339.913 344.546 340.556 344.546 341.348Z" fill="#22223B"/>
<path d="M344.546 350.633C344.546 351.426 343.743 352.06 342.767 352.06C341.779 352.06 340.988 351.417 340.988 350.633C340.988 349.841 341.79 349.207 342.767 349.207C343.743 349.198 344.546 349.841 344.546 350.633Z" fill="#22223B"/>
<path d="M335.616 257.788C335.616 258.58 334.814 259.214 333.837 259.214C332.849 259.214 332.059 258.571 332.059 257.788C332.059 256.995 332.861 256.361 333.837 256.361C334.825 256.352 335.616 256.995 335.616 257.788Z" fill="#22223B"/>
<path d="M335.616 267.073C335.616 267.865 334.814 268.499 333.837 268.499C332.849 268.499 332.059 267.856 332.059 267.073C332.059 266.281 332.861 265.647 333.837 265.647C334.825 265.637 335.616 266.281 335.616 267.073Z" fill="#22223B"/>
<path d="M335.616 285.644C335.616 286.437 334.814 287.071 333.837 287.071C332.849 287.071 332.059 286.427 332.059 285.644C332.059 284.852 332.861 284.218 333.837 284.218C334.825 284.209 335.616 284.852 335.616 285.644Z" fill="#22223B"/>
<path d="M335.616 304.206C335.616 304.998 334.814 305.632 333.837 305.632C332.849 305.632 332.059 304.989 332.059 304.206C332.059 303.423 332.861 302.779 333.837 302.779C334.825 302.779 335.616 303.423 335.616 304.206Z" fill="#22223B"/>
<path d="M335.616 313.492C335.616 314.284 334.814 314.918 333.837 314.918C332.849 314.918 332.059 314.275 332.059 313.492C332.059 312.709 332.861 312.065 333.837 312.065C334.825 312.065 335.616 312.709 335.616 313.492Z" fill="#22223B"/>
<path d="M335.616 322.777C335.616 323.569 334.814 324.203 333.837 324.203C332.849 324.203 332.059 323.56 332.059 322.777C332.059 321.985 332.861 321.351 333.837 321.351C334.825 321.351 335.616 321.985 335.616 322.777Z" fill="#22223B"/>
<path d="M335.616 350.633C335.616 351.426 334.814 352.06 333.837 352.06C332.849 352.06 332.059 351.417 332.059 350.633C332.059 349.841 332.861 349.207 333.837 349.207C334.825 349.198 335.616 349.841 335.616 350.633Z" fill="#22223B"/>
<path d="M335.616 359.919C335.616 360.711 334.814 361.345 333.837 361.345C332.849 361.345 332.059 360.702 332.059 359.919C332.059 359.136 332.861 358.492 333.837 358.492C334.825 358.483 335.616 359.126 335.616 359.919Z" fill="#22223B"/>
<path d="M335.616 369.205C335.616 369.997 334.814 370.631 333.837 370.631C332.849 370.631 332.059 369.988 332.059 369.205C332.059 368.412 332.861 367.778 333.837 367.778C334.825 367.769 335.616 368.412 335.616 369.205Z" fill="#22223B"/>
<path d="M335.616 378.491C335.616 379.283 334.814 379.917 333.837 379.917C332.849 379.917 332.059 379.274 332.059 378.491C332.059 377.698 332.861 377.065 333.837 377.065C334.825 377.055 335.616 377.698 335.616 378.491Z" fill="#22223B"/>
<path d="M335.616 387.766C335.616 388.559 334.814 389.193 333.837 389.193C332.849 389.193 332.059 388.549 332.059 387.766C332.059 386.974 332.861 386.34 333.837 386.34C334.825 386.34 335.616 386.983 335.616 387.766Z" fill="#22223B"/>
<path d="M335.616 415.624C335.616 416.416 334.814 417.05 333.837 417.05C332.849 417.05 332.059 416.407 332.059 415.624C332.059 414.831 332.861 414.197 333.837 414.197C334.825 414.197 335.616 414.831 335.616 415.624Z" fill="#22223B"/>
<path d="M335.616 443.479C335.616 444.272 334.814 444.906 333.837 444.906C332.849 444.906 332.059 444.262 332.059 443.479C332.059 442.696 332.861 442.053 333.837 442.053C334.825 442.044 335.616 442.687 335.616 443.479Z" fill="#22223B"/>
<path d="M335.616 452.765C335.616 453.558 334.814 454.192 333.837 454.192C332.849 454.192 332.059 453.548 332.059 452.765C332.059 451.973 332.861 451.339 333.837 451.339C334.825 451.33 335.616 451.973 335.616 452.765Z" fill="#22223B"/>
<path d="M335.616 480.612C335.616 481.404 334.814 482.038 333.837 482.038C332.849 482.038 332.059 481.395 332.059 480.612C332.059 479.829 332.861 479.186 333.837 479.186C334.825 479.186 335.616 479.829 335.616 480.612Z" fill="#22223B"/>
<path d="M326.698 267.073C326.698 267.865 325.896 268.499 324.919 268.499C323.931 268.499 323.141 267.856 323.141 267.073C323.141 266.281 323.943 265.647 324.919 265.647C325.896 265.637 326.698 266.281 326.698 267.073Z" fill="#22223B"/>
<path d="M326.698 285.644C326.698 286.437 325.896 287.071 324.919 287.071C323.931 287.071 323.141 286.427 323.141 285.644C323.141 284.852 323.943 284.218 324.919 284.218C325.896 284.209 326.698 284.852 326.698 285.644Z" fill="#22223B"/>
<path d="M326.698 294.92C326.698 295.713 325.896 296.347 324.919 296.347C323.931 296.347 323.141 295.704 323.141 294.92C323.141 294.128 323.943 293.494 324.919 293.494C325.896 293.494 326.698 294.137 326.698 294.92Z" fill="#22223B"/>
<path d="M326.698 313.492C326.698 314.284 325.896 314.918 324.919 314.918C323.931 314.918 323.141 314.275 323.141 313.492C323.141 312.709 323.943 312.065 324.919 312.065C325.896 312.065 326.698 312.709 326.698 313.492Z" fill="#22223B"/>
<path d="M326.698 341.348C326.698 342.141 325.896 342.775 324.919 342.775C323.931 342.775 323.141 342.132 323.141 341.348C323.141 340.556 323.943 339.922 324.919 339.922C325.896 339.913 326.698 340.556 326.698 341.348Z" fill="#22223B"/>
<path d="M326.698 369.205C326.698 369.997 325.896 370.631 324.919 370.631C323.931 370.631 323.141 369.988 323.141 369.205C323.141 368.412 323.943 367.778 324.919 367.778C325.896 367.769 326.698 368.412 326.698 369.205Z" fill="#22223B"/>
<path d="M326.698 387.766C326.698 388.559 325.896 389.193 324.919 389.193C323.931 389.193 323.141 388.549 323.141 387.766C323.141 386.974 323.943 386.34 324.919 386.34C325.896 386.34 326.698 386.983 326.698 387.766Z" fill="#22223B"/>
<path d="M326.698 397.052C326.698 397.845 325.896 398.479 324.919 398.479C323.931 398.479 323.141 397.836 323.141 397.052C323.141 396.26 323.943 395.626 324.919 395.626C325.896 395.626 326.698 396.269 326.698 397.052Z" fill="#22223B"/>
<path d="M326.698 406.337C326.698 407.13 325.896 407.764 324.919 407.764C323.931 407.764 323.141 407.121 323.141 406.337C323.141 405.554 323.943 404.911 324.919 404.911C325.896 404.911 326.698 405.554 326.698 406.337Z" fill="#22223B"/>
<path d="M326.698 415.624C326.698 416.416 325.896 417.05 324.919 417.05C323.931 417.05 323.141 416.407 323.141 415.624C323.141 414.831 323.943 414.197 324.919 414.197C325.896 414.197 326.698 414.831 326.698 415.624Z" fill="#22223B"/>
<path d="M326.698 424.909C326.698 425.701 325.896 426.335 324.919 426.335C323.931 426.335 323.141 425.692 323.141 424.909C323.141 424.116 323.943 423.482 324.919 423.482C325.896 423.482 326.698 424.116 326.698 424.909Z" fill="#22223B"/>
<path d="M326.698 443.479C326.698 444.272 325.896 444.906 324.919 444.906C323.931 444.906 323.141 444.262 323.141 443.479C323.141 442.696 323.943 442.053 324.919 442.053C325.896 442.044 326.698 442.687 326.698 443.479Z" fill="#22223B"/>
<path d="M326.698 452.765C326.698 453.558 325.896 454.192 324.919 454.192C323.931 454.192 323.141 453.548 323.141 452.765C323.141 451.973 323.943 451.339 324.919 451.339C325.896 451.33 326.698 451.973 326.698 452.765Z" fill="#22223B"/>
<path d="M326.698 471.337C326.698 472.129 325.896 472.763 324.919 472.763C323.931 472.763 323.141 472.12 323.141 471.337C323.141 470.554 323.943 469.91 324.919 469.91C325.896 469.901 326.698 470.544 326.698 471.337Z" fill="#22223B"/>
<path d="M326.698 480.612C326.698 481.404 325.896 482.038 324.919 482.038C323.931 482.038 323.141 481.395 323.141 480.612C323.141 479.829 323.943 479.186 324.919 479.186C325.896 479.186 326.698 479.829 326.698 480.612Z" fill="#22223B"/>
<path d="M326.698 499.183C326.698 499.976 325.896 500.61 324.919 500.61C323.931 500.61 323.141 499.966 323.141 499.183C323.141 498.391 323.943 497.757 324.919 497.757C325.896 497.757 326.698 498.4 326.698 499.183Z" fill="#22223B"/>
<path d="M365.262 248.503C365.262 249.295 366.064 249.929 367.04 249.929C368.028 249.929 368.819 249.286 368.819 248.503C368.819 247.71 368.017 247.076 367.04 247.076C366.064 247.067 365.262 247.71 365.262 248.503Z" fill="#22223B"/>
<path d="M365.262 257.788C365.262 258.58 366.064 259.214 367.04 259.214C368.028 259.214 368.819 258.571 368.819 257.788C368.819 256.995 368.017 256.361 367.04 256.361C366.064 256.352 365.262 256.995 365.262 257.788Z" fill="#22223B"/>
<path d="M365.262 267.073C365.262 267.865 366.064 268.499 367.04 268.499C368.028 268.499 368.819 267.856 368.819 267.073C368.819 266.281 368.017 265.647 367.04 265.647C366.064 265.637 365.262 266.281 365.262 267.073Z" fill="#22223B"/>
<path d="M365.262 276.359C365.262 277.152 366.064 277.785 367.04 277.785C368.028 277.785 368.819 277.142 368.819 276.359C368.819 275.576 368.017 274.933 367.04 274.933C366.064 274.923 365.262 275.567 365.262 276.359Z" fill="#22223B"/>
<path d="M365.262 294.92C365.262 295.713 366.064 296.347 367.04 296.347C368.028 296.347 368.819 295.704 368.819 294.92C368.819 294.128 368.017 293.494 367.04 293.494C366.064 293.494 365.262 294.137 365.262 294.92Z" fill="#22223B"/>
<path d="M365.262 304.206C365.262 304.998 366.064 305.632 367.04 305.632C368.028 305.632 368.819 304.989 368.819 304.206C368.819 303.423 368.017 302.779 367.04 302.779C366.064 302.779 365.262 303.423 365.262 304.206Z" fill="#22223B"/>
<path d="M365.262 313.492C365.262 314.284 366.064 314.918 367.04 314.918C368.028 314.918 368.819 314.275 368.819 313.492C368.819 312.709 368.017 312.065 367.04 312.065C366.064 312.065 365.262 312.709 365.262 313.492Z" fill="#22223B"/>
<path d="M365.262 322.778C365.262 323.57 366.064 324.204 367.04 324.204C368.028 324.204 368.819 323.561 368.819 322.778C368.819 321.985 368.017 321.352 367.04 321.352C366.064 321.352 365.262 321.985 365.262 322.778Z" fill="#22223B"/>
<path d="M365.262 341.348C365.262 342.141 366.064 342.775 367.04 342.775C368.028 342.775 368.819 342.132 368.819 341.348C368.819 340.556 368.017 339.922 367.04 339.922C366.064 339.913 365.262 340.556 365.262 341.348Z" fill="#22223B"/>
<path d="M365.262 350.633C365.262 351.426 366.064 352.06 367.04 352.06C368.028 352.06 368.819 351.417 368.819 350.633C368.819 349.841 368.017 349.207 367.04 349.207C366.064 349.198 365.262 349.841 365.262 350.633Z" fill="#22223B"/>
<path d="M365.262 369.206C365.262 369.998 366.064 370.632 367.04 370.632C368.028 370.632 368.819 369.989 368.819 369.206C368.819 368.413 368.017 367.779 367.04 367.779C366.064 367.77 365.262 368.413 365.262 369.206Z" fill="#22223B"/>
<path d="M365.262 378.491C365.262 379.283 366.064 379.917 367.04 379.917C368.028 379.917 368.819 379.274 368.819 378.491C368.819 377.698 368.017 377.065 367.04 377.065C366.064 377.055 365.262 377.698 365.262 378.491Z" fill="#22223B"/>
<path d="M365.262 387.766C365.262 388.559 366.064 389.193 367.04 389.193C368.028 389.193 368.819 388.549 368.819 387.766C368.819 386.974 368.017 386.34 367.04 386.34C366.064 386.34 365.262 386.983 365.262 387.766Z" fill="#22223B"/>
<path d="M365.262 397.052C365.262 397.845 366.064 398.479 367.04 398.479C368.028 398.479 368.819 397.836 368.819 397.052C368.819 396.26 368.017 395.626 367.04 395.626C366.064 395.626 365.262 396.269 365.262 397.052Z" fill="#22223B"/>
<path d="M365.262 415.624C365.262 416.416 366.064 417.05 367.04 417.05C368.028 417.05 368.819 416.407 368.819 415.624C368.819 414.831 368.017 414.197 367.04 414.197C366.064 414.197 365.262 414.831 365.262 415.624Z" fill="#22223B"/>
<path d="M365.262 424.909C365.262 425.701 366.064 426.335 367.04 426.335C368.028 426.335 368.819 425.692 368.819 424.909C368.819 424.116 368.017 423.482 367.04 423.482C366.064 423.482 365.262 424.116 365.262 424.909Z" fill="#22223B"/>
<path d="M365.262 434.194C365.262 434.986 366.064 435.62 367.04 435.62C368.028 435.62 368.819 434.977 368.819 434.194C368.819 433.411 368.017 432.768 367.04 432.768C366.064 432.768 365.262 433.401 365.262 434.194Z" fill="#22223B"/>
<path d="M365.262 443.479C365.262 444.272 366.064 444.906 367.04 444.906C368.028 444.906 368.819 444.262 368.819 443.479C368.819 442.696 368.017 442.053 367.04 442.053C366.064 442.044 365.262 442.687 365.262 443.479Z" fill="#22223B"/>
<path d="M365.262 452.765C365.262 453.558 366.064 454.192 367.04 454.192C368.028 454.192 368.819 453.548 368.819 452.765C368.819 451.973 368.017 451.339 367.04 451.339C366.064 451.33 365.262 451.973 365.262 452.765Z" fill="#22223B"/>
<path d="M365.262 462.05C365.262 462.843 366.064 463.477 367.04 463.477C368.028 463.477 368.819 462.834 368.819 462.05C368.819 461.258 368.017 460.624 367.04 460.624C366.064 460.615 365.262 461.258 365.262 462.05Z" fill="#22223B"/>
<path d="M365.262 480.612C365.262 481.404 366.064 482.038 367.04 482.038C368.028 482.038 368.819 481.395 368.819 480.612C368.819 479.829 368.017 479.186 367.04 479.186C366.064 479.186 365.262 479.829 365.262 480.612Z" fill="#22223B"/>
<path d="M365.262 489.898C365.262 490.69 366.064 491.324 367.04 491.324C368.028 491.324 368.819 490.681 368.819 489.898C368.819 489.106 368.017 488.472 367.04 488.472C366.064 488.472 365.262 489.115 365.262 489.898Z" fill="#22223B"/>
<path d="M374.191 257.788C374.191 258.58 374.994 259.214 375.97 259.214C376.958 259.214 377.749 258.571 377.749 257.788C377.749 256.995 376.947 256.361 375.97 256.361C374.994 256.352 374.191 256.995 374.191 257.788Z" fill="#22223B"/>
<path d="M374.191 267.073C374.191 267.865 374.994 268.499 375.97 268.499C376.958 268.499 377.749 267.856 377.749 267.073C377.749 266.281 376.947 265.647 375.97 265.647C374.994 265.637 374.191 266.281 374.191 267.073Z" fill="#22223B"/>
<path d="M374.191 285.645C374.191 286.438 374.994 287.072 375.97 287.072C376.958 287.072 377.749 286.428 377.749 285.645C377.749 284.853 376.947 284.219 375.97 284.219C374.994 284.21 374.191 284.853 374.191 285.645Z" fill="#22223B"/>
<path d="M374.191 304.206C374.191 304.998 374.994 305.632 375.97 305.632C376.958 305.632 377.749 304.989 377.749 304.206C377.749 303.423 376.947 302.779 375.97 302.779C374.994 302.779 374.191 303.423 374.191 304.206Z" fill="#22223B"/>
<path d="M374.191 322.778C374.191 323.57 374.994 324.204 375.97 324.204C376.958 324.204 377.749 323.561 377.749 322.778C377.749 321.985 376.947 321.352 375.97 321.352C374.994 321.352 374.191 321.985 374.191 322.778Z" fill="#22223B"/>
<path d="M374.191 350.633C374.191 351.426 374.994 352.06 375.97 352.06C376.958 352.06 377.749 351.417 377.749 350.633C377.749 349.841 376.947 349.207 375.97 349.207C374.994 349.198 374.191 349.841 374.191 350.633Z" fill="#22223B"/>
<path d="M374.191 359.919C374.191 360.711 374.994 361.345 375.97 361.345C376.958 361.345 377.749 360.702 377.749 359.919C377.749 359.136 376.947 358.492 375.97 358.492C374.994 358.483 374.191 359.126 374.191 359.919Z" fill="#22223B"/>
<path d="M374.191 378.491C374.191 379.283 374.994 379.917 375.97 379.917C376.958 379.917 377.749 379.274 377.749 378.491C377.749 377.698 376.947 377.065 375.97 377.065C374.994 377.055 374.191 377.698 374.191 378.491Z" fill="#22223B"/>
<path d="M374.191 387.766C374.191 388.559 374.994 389.193 375.97 389.193C376.958 389.193 377.749 388.549 377.749 387.766C377.749 386.974 376.947 386.34 375.97 386.34C374.994 386.34 374.191 386.983 374.191 387.766Z" fill="#22223B"/>
<path d="M374.191 415.624C374.191 416.416 374.994 417.05 375.97 417.05C376.958 417.05 377.749 416.407 377.749 415.624C377.749 414.831 376.947 414.197 375.97 414.197C374.994 414.197 374.191 414.831 374.191 415.624Z" fill="#22223B"/>
<path d="M374.191 434.194C374.191 434.986 374.994 435.62 375.97 435.62C376.958 435.62 377.749 434.977 377.749 434.194C377.749 433.411 376.947 432.768 375.97 432.768C374.994 432.768 374.191 433.401 374.191 434.194Z" fill="#22223B"/>
<path d="M374.191 452.765C374.191 453.558 374.994 454.192 375.97 454.192C376.958 454.192 377.749 453.548 377.749 452.765C377.749 451.973 376.947 451.339 375.97 451.339C374.994 451.33 374.191 451.973 374.191 452.765Z" fill="#22223B"/>
<path d="M374.191 480.612C374.191 481.404 374.994 482.038 375.97 482.038C376.958 482.038 377.749 481.395 377.749 480.612C377.749 479.829 376.947 479.186 375.97 479.186C374.994 479.186 374.191 479.829 374.191 480.612Z" fill="#22223B"/>
<path d="M383.117 267.073C383.117 267.865 383.919 268.499 384.896 268.499C385.884 268.499 386.674 267.856 386.674 267.073C386.674 266.281 385.872 265.647 384.896 265.647C383.908 265.637 383.117 266.281 383.117 267.073Z" fill="#22223B"/>
<path d="M383.117 276.359C383.117 277.152 383.919 277.785 384.896 277.785C385.884 277.785 386.674 277.142 386.674 276.359C386.674 275.576 385.872 274.933 384.896 274.933C383.908 274.923 383.117 275.567 383.117 276.359Z" fill="#22223B"/>
<path d="M383.117 285.645C383.117 286.438 383.919 287.072 384.896 287.072C385.884 287.072 386.674 286.428 386.674 285.645C386.674 284.853 385.872 284.219 384.896 284.219C383.908 284.21 383.117 284.853 383.117 285.645Z" fill="#22223B"/>
<path d="M383.117 294.92C383.117 295.713 383.919 296.347 384.896 296.347C385.884 296.347 386.674 295.704 386.674 294.92C386.674 294.128 385.872 293.494 384.896 293.494C383.908 293.494 383.117 294.137 383.117 294.92Z" fill="#22223B"/>
<path d="M383.117 313.492C383.117 314.284 383.919 314.918 384.896 314.918C385.884 314.918 386.674 314.275 386.674 313.492C386.674 312.709 385.872 312.065 384.896 312.065C383.908 312.065 383.117 312.709 383.117 313.492Z" fill="#22223B"/>
<path d="M383.117 322.778C383.117 323.57 383.919 324.204 384.896 324.204C385.884 324.204 386.674 323.561 386.674 322.778C386.674 321.985 385.872 321.352 384.896 321.352C383.908 321.352 383.117 321.985 383.117 322.778Z" fill="#22223B"/>
<path d="M383.117 332.063C383.117 332.856 383.919 333.489 384.896 333.489C385.884 333.489 386.674 332.846 386.674 332.063C386.674 331.271 385.872 330.637 384.896 330.637C383.908 330.637 383.117 331.271 383.117 332.063Z" fill="#22223B"/>
<path d="M383.117 341.348C383.117 342.141 383.919 342.775 384.896 342.775C385.884 342.775 386.674 342.132 386.674 341.348C386.674 340.556 385.872 339.922 384.896 339.922C383.908 339.913 383.117 340.556 383.117 341.348Z" fill="#22223B"/>
<path d="M383.117 359.919C383.117 360.711 383.919 361.345 384.896 361.345C385.884 361.345 386.674 360.702 386.674 359.919C386.674 359.136 385.872 358.492 384.896 358.492C383.908 358.483 383.117 359.126 383.117 359.919Z" fill="#22223B"/>
<path d="M383.117 369.206C383.117 369.998 383.919 370.632 384.896 370.632C385.884 370.632 386.674 369.989 386.674 369.206C386.674 368.413 385.872 367.779 384.896 367.779C383.908 367.77 383.117 368.413 383.117 369.206Z" fill="#22223B"/>
<path d="M383.117 387.766C383.117 388.559 383.919 389.193 384.896 389.193C385.884 389.193 386.674 388.549 386.674 387.766C386.674 386.974 385.872 386.34 384.896 386.34C383.908 386.34 383.117 386.983 383.117 387.766Z" fill="#22223B"/>
<path d="M383.117 397.052C383.117 397.845 383.919 398.479 384.896 398.479C385.884 398.479 386.674 397.836 386.674 397.052C386.674 396.26 385.872 395.626 384.896 395.626C383.908 395.626 383.117 396.269 383.117 397.052Z" fill="#22223B"/>
<path d="M383.117 406.338C383.117 407.131 383.919 407.765 384.896 407.765C385.884 407.765 386.674 407.122 386.674 406.338C386.674 405.555 385.872 404.912 384.896 404.912C383.908 404.912 383.117 405.555 383.117 406.338Z" fill="#22223B"/>
<path d="M383.117 415.624C383.117 416.416 383.919 417.05 384.896 417.05C385.884 417.05 386.674 416.407 386.674 415.624C386.674 414.831 385.872 414.197 384.896 414.197C383.908 414.197 383.117 414.831 383.117 415.624Z" fill="#22223B"/>
<path d="M383.117 434.194C383.117 434.986 383.919 435.62 384.896 435.62C385.884 435.62 386.674 434.977 386.674 434.194C386.674 433.411 385.872 432.768 384.896 432.768C383.908 432.768 383.117 433.401 383.117 434.194Z" fill="#22223B"/>
<path d="M383.117 443.479C383.117 444.272 383.919 444.906 384.896 444.906C385.884 444.906 386.674 444.262 386.674 443.479C386.674 442.696 385.872 442.053 384.896 442.053C383.908 442.044 383.117 442.687 383.117 443.479Z" fill="#22223B"/>
<path d="M383.117 452.765C383.117 453.558 383.919 454.192 384.896 454.192C385.884 454.192 386.674 453.548 386.674 452.765C386.674 451.973 385.872 451.339 384.896 451.339C383.908 451.33 383.117 451.973 383.117 452.765Z" fill="#22223B"/>
<path d="M383.117 462.05C383.117 462.843 383.919 463.477 384.896 463.477C385.884 463.477 386.674 462.834 386.674 462.05C386.674 461.258 385.872 460.624 384.896 460.624C383.908 460.615 383.117 461.258 383.117 462.05Z" fill="#22223B"/>
<path d="M383.117 471.337C383.117 472.129 383.919 472.763 384.896 472.763C385.884 472.763 386.674 472.12 386.674 471.337C386.674 470.554 385.872 469.91 384.896 469.91C383.908 469.901 383.117 470.544 383.117 471.337Z" fill="#22223B"/>
<path d="M383.117 489.898C383.117 490.69 383.919 491.324 384.896 491.324C385.884 491.324 386.674 490.681 386.674 489.898C386.674 489.106 385.872 488.472 384.896 488.472C383.908 488.472 383.117 489.115 383.117 489.898Z" fill="#22223B"/>
<path d="M365.262 499.183C365.262 499.976 366.064 500.61 367.04 500.61C368.028 500.61 368.819 499.966 368.819 499.183C368.819 498.391 368.017 497.757 367.04 497.757C366.064 497.757 365.262 498.4 365.262 499.183Z" fill="#22223B"/>
<path d="M374.191 499.183C374.191 499.976 374.994 500.61 375.97 500.61C376.958 500.61 377.749 499.966 377.749 499.183C377.749 498.391 376.947 497.757 375.97 497.757C374.994 497.757 374.191 498.4 374.191 499.183Z" fill="#22223B"/>
<path d="M383.117 499.183C383.117 499.976 383.919 500.61 384.896 500.61C385.884 500.61 386.674 499.966 386.674 499.183C386.674 498.391 385.872 497.757 384.896 497.757C383.908 497.757 383.117 498.4 383.117 499.183Z" fill="#22223B"/>
<path d="M354.812 221.689V249.928" stroke="#22223B" strokeWidth="2" stroke-miterlimit="10" strokeLinecap="round" stroke-linejoin="round"/>
<path d="M354.82 259.895V273.282" stroke="#22223B" strokeWidth="2" stroke-miterlimit="10" strokeLinecap="round" stroke-linejoin="round"/>
<path d="M354.82 295.564C354.935 296.226 354.82 320.932 354.82 320.932" stroke="#22223B" strokeWidth="2" stroke-miterlimit="10" strokeLinecap="round" stroke-linejoin="round"/>
<path d="M354.727 282.195V287.901" stroke="#22223B" strokeWidth="2" stroke-miterlimit="10" strokeLinecap="round" stroke-linejoin="round"/>
<path d="M354.727 353.682V362.743" stroke="#22223B" strokeWidth="2" stroke-miterlimit="10" strokeLinecap="round" stroke-linejoin="round"/>
<path d="M354.727 429.104V438.175" stroke="#22223B" strokeWidth="2" stroke-miterlimit="10" strokeLinecap="round" stroke-linejoin="round"/>
<path d="M354.727 444.133V453.195" stroke="#22223B" strokeWidth="2" stroke-miterlimit="10" strokeLinecap="round" stroke-linejoin="round"/>
<path d="M354.812 473.807V481.153" stroke="#22223B" strokeWidth="2" stroke-miterlimit="10" strokeLinecap="round" stroke-linejoin="round"/>
<path d="M354.727 493.748V508.133" stroke="#22223B" strokeWidth="2" stroke-miterlimit="10" strokeLinecap="round" stroke-linejoin="round"/>
<path d="M354.82 369.764V378.835" stroke="#22223B" strokeWidth="2" stroke-miterlimit="10" strokeLinecap="round" stroke-linejoin="round"/>
<path d="M354.727 385.855V402.403" stroke="#22223B" strokeWidth="2" stroke-miterlimit="10" strokeLinecap="round" stroke-linejoin="round"/>
</g>
<mask id="mask1_0_44849" style="mask-type:luminance" maskUnits="userSpaceOnUse" x="208" y="293" width="132" height="239">
<path d="M339.761 293.168V531.999H208.562V500.302C214.945 502.372 221.71 505.448 227.79 508.348C238.52 513.503 250.47 513.839 251.796 513.867H251.912C252.33 513.867 252.76 513.839 253.156 513.773C253.993 513.652 254.83 513.512 255.911 513.298L256.306 513.223C258.015 512.878 259.642 512.45 261.189 511.955L261.491 511.862C263.037 511.349 264.455 510.781 265.85 510.109L266.083 509.988C267.385 509.354 268.582 508.646 269.768 507.825C274.487 504.516 277.359 500.209 278.312 495.016C278.335 494.923 278.347 494.839 278.37 494.746L278.405 494.494C278.498 493.86 278.568 493.226 278.614 492.536C278.661 491.678 278.661 490.811 278.603 489.963V489.954C278.428 487.175 277.754 485.218 277.696 485.059C266.885 452.905 228.964 444.691 208.562 442.622V293.168H339.761Z" fill="white"/>
</mask>
<g mask="url(#mask1_0_44849)">
<path d="M292.07 400.754V321.809L317.355 347.903L332.548 363.584L300.487 400.754" stroke="#22223B" strokeWidth="2" stroke-miterlimit="10" strokeLinecap="round" stroke-linejoin="round"/>
<path d="M255.327 347.903L240.133 363.584L280.611 410.506V347.903V321.809L255.327 347.903Z" stroke="#22223B" strokeWidth="2" stroke-miterlimit="10" strokeLinecap="round" stroke-linejoin="round"/>
<path d="M332.551 363.584V508.274H240.133V363.584" stroke="#22223B" strokeWidth="2" stroke-miterlimit="10" strokeLinecap="round" stroke-linejoin="round"/>
<path d="M300.488 401.406H292.072H280.609V508.273H298.791" stroke="#22223B" strokeWidth="2" stroke-miterlimit="10" strokeLinecap="round" stroke-linejoin="round"/>
<path d="M280.619 382.09H280.609" stroke="#22223B" strokeWidth="2" stroke-miterlimit="10" strokeLinecap="round" stroke-linejoin="round"/>
<path d="M280.619 391.748H280.609" stroke="#22223B" strokeWidth="2" stroke-miterlimit="10" strokeLinecap="round" stroke-linejoin="round"/>
<path d="M280.619 401.406H280.609" stroke="#22223B" strokeWidth="2" stroke-miterlimit="10" strokeLinecap="round" stroke-linejoin="round"/>
<path d="M332.528 420.714H240.133" stroke="#FE9264" strokeWidth="2" stroke-miterlimit="10" strokeLinecap="round" stroke-linejoin="round"/>
<path d="M332.528 430.363H240.133" stroke="#22223B" strokeWidth="2" stroke-miterlimit="10" strokeLinecap="round" stroke-linejoin="round"/>
<path d="M332.539 440.021H240.133" stroke="#FE9264" strokeWidth="2" stroke-miterlimit="10" strokeLinecap="round" stroke-linejoin="round"/>
<path d="M256.094 382.09H240.133" stroke="#FE9264" strokeWidth="2" stroke-miterlimit="10" strokeLinecap="round" stroke-linejoin="round"/>
<path d="M264.429 391.748H240.145" stroke="#22223B" strokeWidth="2" stroke-miterlimit="10" strokeLinecap="round" stroke-linejoin="round"/>
<path d="M272.764 401.406H240.145" stroke="#22223B" strokeWidth="2" stroke-miterlimit="10" strokeLinecap="round" stroke-linejoin="round"/>
<path d="M332.051 382.09H316.59" stroke="#FE9264" strokeWidth="2" stroke-miterlimit="10" strokeLinecap="round" stroke-linejoin="round"/>
<path d="M332.035 391.748H308.25" stroke="#22223B" strokeWidth="2" stroke-miterlimit="10" strokeLinecap="round" stroke-linejoin="round"/>
<path d="M332.037 401.406H299.418" stroke="#FE9264" strokeWidth="2" stroke-miterlimit="10" strokeLinecap="round" stroke-linejoin="round"/>
<path d="M332.551 411.056H240.156" stroke="#22223B" strokeWidth="2" stroke-miterlimit="10" strokeLinecap="round" stroke-linejoin="round"/>
<path d="M332.539 449.68H240.145" stroke="#22223B" strokeWidth="2" stroke-miterlimit="10" strokeLinecap="round" stroke-linejoin="round"/>
<path d="M332.539 459.329H240.145" stroke="#FE9264" strokeWidth="2" stroke-miterlimit="10" strokeLinecap="round" stroke-linejoin="round"/>
<path d="M332.539 468.988H240.145" stroke="#22223B" strokeWidth="2" stroke-miterlimit="10" strokeLinecap="round" stroke-linejoin="round"/>
<path d="M332.551 478.646H240.145" stroke="#FE9264" strokeWidth="2" stroke-miterlimit="10" strokeLinecap="round" stroke-linejoin="round"/>
<path d="M332.551 488.295H240.156" stroke="#22223B" strokeWidth="2" stroke-miterlimit="10" strokeLinecap="round" stroke-linejoin="round"/>
<path d="M332.551 497.953H240.156" stroke="#FE9264" strokeWidth="2" stroke-miterlimit="10" strokeLinecap="round" stroke-linejoin="round"/>
</g>
</g>
<defs>
<clipPath id="clip0_0_44849">
<rect width="701" height="515" fill="white" transform="translate(-14)"/>
</clipPath>
</defs>
</svg>
