<svg width="69" height="16" viewBox="0 0 69 16" fill="none" xmlns="http://www.w3.org/2000/svg">
<path d="M2 14C4.79359 12.2062 7.65638 10.9005 10.519 9.52381C10.9754 9.30434 12.1761 8.28617 12.6538 8.47619C13.1247 8.66351 13.2312 10.3192 13.2523 11C13.2704 11.5827 13.5257 11.4286 13.7843 11.4286C15.1609 11.4286 16.6094 10.7028 17.9341 10.119C20.2242 9.10992 22.4975 7.96622 24.7839 6.92857C25.6739 6.52467 26.4192 5.85714 27.3509 5.85714C27.8627 5.85714 27.729 6.268 27.7366 7.16667C27.7423 7.83492 27.8736 8.53108 28.2354 8.83333C28.8425 9.34046 29.758 9.09662 30.3968 9.07143C32.181 9.00108 33.91 8.31454 35.6372 7.55952C39.2606 5.97566 42.7791 3.70154 46.4506 2.47619C47.0766 2.26725 47.7311 2 48.3725 2C48.7532 2 48.2719 3.88647 48.2595 3.95238C47.9336 5.67794 47.3683 7.50451 47.3683 9.38095C47.3683 11.6027 49.4783 10.4157 50.2213 10.3333C54.746 9.83158 58.9501 8.19348 63.2625 5.78571C64.435 5.13109 65.7504 4.14286 67 4.14286" stroke="#FE9264" strokeWidth="2.58772" strokeLinecap="round"/>
</svg>
