<svg width="48" height="48" viewBox="0 0 48 48" fill="none" xmlns="http://www.w3.org/2000/svg">
<rect x="0.5" y="0.5" width="47" height="47" rx="23.5" stroke="#22223B"/>
<path d="M25.7115 21.686V24.2146H27.9658C28.1286 24.2146 28.2486 24.3603 28.2144 24.5231L27.8886 26.1517C27.8629 26.2717 27.7601 26.3574 27.6401 26.3574H25.7115V32.5717H23.1401V26.3574H21.6829C21.5372 26.3574 21.4258 26.246 21.4258 26.1003V24.4717C21.4258 24.326 21.5372 24.2146 21.6829 24.2146H23.1401V21.4289C23.1401 20.006 24.2886 18.8574 25.7115 18.8574H28.0258C28.1715 18.8574 28.2829 18.9688 28.2829 19.1146V21.1717C28.2829 21.3174 28.1715 21.4289 28.0258 21.4289H25.9686C25.8229 21.4289 25.7115 21.5403 25.7115 21.686Z" stroke="#22223B" strokeWidth="0.857143" stroke-miterlimit="10" strokeLinecap="round"/>
<path d="M15.4258 21.283V26.5716C15.4258 30.8573 17.1401 32.5716 21.4258 32.5716H26.5686C30.8544 32.5716 32.5686 30.8573 32.5686 26.5716V21.4287C32.5686 17.143 30.8544 15.4287 26.5686 15.4287H21.4258C17.1401 15.4287 15.4258 17.143 15.4258 21.4287" stroke="#22223B" strokeLinecap="round" strokeLinejoin="round"/>
</svg>
