<svg width="48" height="48" viewBox="0 0 48 48" fill="none" xmlns="http://www.w3.org/2000/svg">
<rect x="0.5" y="0.5" width="47" height="47" rx="23.5" stroke="#22223B"/>
<path d="M15.4258 21.4544V26.5716C15.4258 30.8573 17.1401 32.5716 21.4258 32.5716H26.5686C30.8544 32.5716 32.5686 30.8573 32.5686 26.5716V21.4287C32.5686 17.143 30.8544 15.4287 26.5686 15.4287H21.4258C17.1401 15.4287 15.4258 17.143 15.4258 21.4287" stroke="#22223B" strokeLinecap="round" strokeLinejoin="round"/>
<path d="M24.0039 27C25.6608 27 27.0039 25.6569 27.0039 24C27.0039 22.3431 25.6608 21 24.0039 21C22.3471 21 21.0039 22.3431 21.0039 24C21.0039 25.6569 22.3471 27 24.0039 27Z" stroke="#22223B" strokeLinecap="round" strokeLinejoin="round"/>
<path d="M29.1296 20.1431H29.1528" stroke="#22223B" strokeWidth="1.28571" strokeLinecap="round" strokeLinejoin="round"/>
</svg>
