<svg width="48" height="48" viewBox="0 0 48 48" fill="none" xmlns="http://www.w3.org/2000/svg">
<rect x="0.5" y="0.5" width="47" height="47" rx="23.5" stroke="#22223B"/>
<path d="M32.6428 19.359C31.4021 19.3576 30.2126 18.8641 29.3353 17.9868C28.458 17.1095 27.9645 15.92 27.9631 14.6793C27.9631 14.5838 27.9252 14.4923 27.8577 14.4248C27.7902 14.3573 27.6986 14.3193 27.6031 14.3193H24.0033C23.9079 14.3193 23.8163 14.3573 23.7488 14.4248C23.6813 14.4923 23.6434 14.5838 23.6434 14.6793V26.5586C23.6433 26.9451 23.5395 27.3246 23.3429 27.6573C23.1462 27.9901 22.8638 28.2639 22.5252 28.4504C22.1866 28.6368 21.8041 28.7289 21.4178 28.7172C21.0314 28.7054 20.6553 28.5902 20.3286 28.3835C20.002 28.1768 19.7368 27.8863 19.5607 27.5422C19.3847 27.1981 19.3042 26.813 19.3276 26.4272C19.3511 26.0414 19.4777 25.6689 19.6941 25.3487C19.9106 25.0284 20.2091 24.7722 20.5584 24.6066C20.6199 24.5773 20.6718 24.5311 20.7082 24.4734C20.7445 24.4158 20.7637 24.349 20.7635 24.2808V20.439C20.7636 20.3863 20.7521 20.3344 20.7298 20.2867C20.7076 20.239 20.6752 20.1967 20.6348 20.1629C20.5945 20.1291 20.5473 20.1046 20.4964 20.091C20.4456 20.0774 20.3924 20.0752 20.3406 20.0844C17.2979 20.6261 15.0039 23.4088 15.0039 26.5586C15.0039 28.2771 15.6866 29.9252 16.9017 31.1403C18.1169 32.3555 19.765 33.0382 21.4835 33.0382C23.202 33.0382 24.8501 32.3555 26.0653 31.1403C27.2804 29.9252 27.9631 28.2771 27.9631 26.5586V22.3684C29.3719 23.2293 30.9918 23.6828 32.6428 23.6788C32.7383 23.6788 32.8298 23.6408 32.8974 23.5733C32.9649 23.5058 33.0028 23.4143 33.0028 23.3188V19.719C33.0028 19.6235 32.9649 19.532 32.8974 19.4645C32.8298 19.3969 32.7383 19.359 32.6428 19.359ZM32.2828 22.9516C30.6738 22.8852 29.1198 22.3476 27.8137 21.4055C27.7599 21.3666 27.6963 21.3435 27.6301 21.3385C27.5639 21.3335 27.4976 21.3469 27.4385 21.3773C27.3795 21.4077 27.33 21.4538 27.2955 21.5105C27.261 21.5673 27.2429 21.6325 27.2431 21.6989V26.5586C27.2431 28.0861 26.6363 29.5511 25.5562 30.6313C24.476 31.7114 23.0111 32.3182 21.4835 32.3182C19.956 32.3182 18.491 31.7114 17.4108 30.6313C16.3307 29.5511 15.7239 28.0861 15.7239 26.5586C15.7239 23.9019 17.5525 21.5378 20.0436 20.8889V24.0666C19.6057 24.3194 19.2421 24.6831 18.9894 25.1209C18.7366 25.5588 18.6036 26.0555 18.6037 26.5611C18.6038 27.0667 18.737 27.5634 18.9899 28.0012C19.2428 28.439 19.6065 28.8025 20.0445 29.0551C20.4824 29.3078 20.9792 29.4407 21.4848 29.4405C21.9904 29.4402 22.487 29.3069 22.9247 29.0539C23.3625 28.8008 23.7259 28.437 23.9784 27.999C24.2309 27.561 24.3637 27.0642 24.3633 26.5586V15.0393H27.2548C27.344 16.3434 27.9024 17.5711 28.8267 18.4955C29.751 19.4198 30.9787 19.9781 32.2828 20.0673V22.9516Z" fill="#22223B" stroke="#22223B" strokeWidth="0.4"/>
</svg>
