<svg width="21" height="22" viewBox="0 0 21 22" fill="none" xmlns="http://www.w3.org/2000/svg">
<path d="M8.24829 4.86754L8.24829 5.08211L8.24829 4.86754C7.76862 4.86754 7.37369 5.26246 7.37369 5.74213C7.37369 6.2218 7.76862 6.61672 8.24828 6.61672L14.8849 6.61672L14.8849 13.2534C14.8849 13.5001 14.9844 13.7157 15.1408 13.8721C15.2931 14.0243 15.5151 14.1353 15.7633 14.128C16.2413 14.1259 16.6341 13.7318 16.6341 13.2534L16.6341 5.74213C16.6341 5.26246 16.2392 4.86754 15.7595 4.86754L15.7595 5.08557L15.7595 4.86754L8.24829 4.86754Z" fill="#5C5C6C" stroke="#5C5C6C" strokeWidth="0.4375"/>
<path d="M4.6245 15.6423C4.2854 15.9814 4.2854 16.5406 4.6245 16.8797C4.9636 17.2189 5.52284 17.2189 5.86194 16.8797L16.275 6.46672C16.6141 6.12762 16.6141 5.56838 16.275 5.22928C15.9359 4.89018 15.3766 4.89018 15.0375 5.22928L4.6245 15.6423Z" fill="#5C5C6C" stroke="#5C5C6C" strokeWidth="0.4375"/>
</svg>
