<svg width="14" height="14" viewBox="0 0 14 14" fill="none" xmlns="http://www.w3.org/2000/svg">
<path fill-rule="evenodd" clip-rule="evenodd" d="M13.6673 6.99992C13.6673 3.31792 10.6827 0.333252 7.00065 0.333252C3.31865 0.333252 0.333984 3.31792 0.333984 6.99992C0.333984 10.6819 3.31865 13.6666 7.00065 13.6666C10.6827 13.6666 13.6673 10.6819 13.6673 6.99992ZM7.00065 3.16659C7.13326 3.16659 7.26044 3.21926 7.3542 3.31303C7.44797 3.4068 7.50065 3.53398 7.50065 3.66659V7.66659C7.50065 7.79919 7.44797 7.92637 7.3542 8.02014C7.26044 8.11391 7.13326 8.16659 7.00065 8.16659C6.86804 8.16659 6.74087 8.11391 6.6471 8.02014C6.55333 7.92637 6.50065 7.79919 6.50065 7.66659V3.66659C6.50065 3.53398 6.55333 3.4068 6.6471 3.31303C6.74087 3.21926 6.86804 3.16659 7.00065 3.16659ZM7.00065 10.3333C7.17746 10.3333 7.34703 10.263 7.47206 10.138C7.59708 10.013 7.66732 9.8434 7.66732 9.66659C7.66732 9.48977 7.59708 9.32021 7.47206 9.19518C7.34703 9.07016 7.17746 8.99992 7.00065 8.99992C6.82384 8.99992 6.65427 9.07016 6.52925 9.19518C6.40422 9.32021 6.33398 9.48977 6.33398 9.66659C6.33398 9.8434 6.40422 10.013 6.52925 10.138C6.65427 10.263 6.82384 10.3333 7.00065 10.3333Z" fill="#FD5252"/>
</svg>
