<svg width="25" height="24" viewBox="0 0 25 24" fill="none" xmlns="http://www.w3.org/2000/svg">
<path fill-rule="evenodd" clip-rule="evenodd" d="M21.14 12.2042C21.14 11.566 21.0827 10.9524 20.9764 10.3633H12.5V13.8446H17.3436C17.135 14.9696 16.5009 15.9228 15.5477 16.561V18.8192H18.4564C20.1582 17.2524 21.14 14.9451 21.14 12.2042Z" fill="#4285F4"/>
<path fill-rule="evenodd" clip-rule="evenodd" d="M12.4998 21C14.9298 21 16.967 20.1941 18.4561 18.8195L15.5475 16.5613C14.7416 17.1013 13.7107 17.4204 12.4998 17.4204C10.1557 17.4204 8.17158 15.8372 7.46385 13.71H4.45703V16.0418C5.93794 18.9831 8.98158 21 12.4998 21Z" fill="#34A853"/>
<path fill-rule="evenodd" clip-rule="evenodd" d="M7.46409 13.7108C7.28409 13.1708 7.18182 12.594 7.18182 12.0008C7.18182 11.4076 7.28409 10.8308 7.46409 10.2908V7.95898H4.45727C3.84773 9.17398 3.5 10.5485 3.5 12.0008C3.5 13.4531 3.84773 14.8276 4.45727 16.0426L7.46409 13.7108Z" fill="#FBBC05"/>
<path fill-rule="evenodd" clip-rule="evenodd" d="M12.4998 6.57955C13.8211 6.57955 15.0075 7.03364 15.9402 7.92545L18.5216 5.34409C16.9629 3.89182 14.9257 3 12.4998 3C8.98158 3 5.93794 5.01682 4.45703 7.95818L7.46385 10.29C8.17158 8.16273 10.1557 6.57955 12.4998 6.57955Z" fill="#EA4335"/>
</svg>
