<svg width="68" height="20" viewBox="0 0 68 20" fill="none" xmlns="http://www.w3.org/2000/svg">
<g clip-path="url(#clip0_0_9714)">
<path d="M65.7135 12.2227L67.5723 13.3499C66.969 14.1583 65.5261 15.5452 63.0316 15.5452C59.9339 15.5452 57.627 13.3648 57.627 10.5911C57.627 7.63959 59.9583 5.63721 62.7708 5.63721C65.5994 5.63721 66.9852 7.68399 67.4337 8.78899L67.6783 9.35268L60.3904 12.0966C60.9448 13.0904 61.809 13.5947 63.0316 13.5947C64.2545 13.5947 65.1022 13.0459 65.7135 12.2227ZM59.9992 10.4355L64.8658 8.59625C64.5968 7.98078 63.798 7.54328 62.8441 7.54328C61.6295 7.54328 59.9421 8.52221 59.9992 10.4355Z" fill="#FF302F"/>
<path d="M54.1133 0.586914H56.4609V15.0929H54.1133V0.586914Z" fill="#20B15A"/>
<path d="M50.4145 6.02286H52.6807V14.8332C52.6807 18.4893 50.3085 19.9948 47.5042 19.9948C44.863 19.9948 43.2735 18.3781 42.6783 17.0655L44.757 16.2793C45.1319 17.0876 46.0368 18.0444 47.5042 18.0444C49.3057 18.0444 50.4145 17.0283 50.4145 15.1299V14.418H50.3329C49.7948 15.0112 48.7677 15.5451 47.4635 15.5451C44.7407 15.5451 42.2461 13.387 42.2461 10.6061C42.2461 7.81012 44.7407 5.62988 47.4635 5.62988C48.7596 5.62988 49.7948 6.15643 50.3329 6.73488H50.4145V6.02286ZM50.5774 10.6061C50.5774 8.85584 49.2976 7.58024 47.6672 7.58024C46.0205 7.58024 44.6347 8.85584 44.6347 10.6061C44.6347 12.3339 46.0205 13.5873 47.6672 13.5873C49.2977 13.5948 50.5775 12.3339 50.5775 10.6061" fill="#3686F7"/>
<path d="M29.3577 10.5692C29.3577 13.4245 26.9122 15.5231 23.9122 15.5231C20.9124 15.5231 18.4668 13.4171 18.4668 10.5692C18.4668 7.69922 20.9124 5.60791 23.9122 5.60791C26.9122 5.60791 29.3577 7.69922 29.3577 10.5692ZM26.9774 10.5692C26.9774 8.78946 25.5589 7.56565 23.9122 7.56565C22.2656 7.56565 20.8471 8.78946 20.8471 10.5692C20.8471 12.3342 22.2656 13.5728 23.9122 13.5728C25.559 13.5728 26.9774 12.3342 26.9774 10.5692Z" fill="#FF302F"/>
<path d="M41.2503 10.5911C41.2503 13.4464 38.8046 15.5451 35.8048 15.5451C32.8049 15.5451 30.3594 13.4463 30.3594 10.5911C30.3594 7.72114 32.8049 5.63721 35.8048 5.63721C38.8046 5.63721 41.2503 7.71376 41.2503 10.5911ZM38.8617 10.5911C38.8617 8.81137 37.4433 7.58756 35.7966 7.58756C34.15 7.58756 32.7315 8.81137 32.7315 10.5911C32.7315 12.3561 34.15 13.5947 35.7966 13.5947C37.4514 13.5947 38.8617 12.3488 38.8617 10.5911Z" fill="#FFBA40"/>
<path d="M9.515 13.3724C6.09931 13.3724 3.42559 10.8658 3.42559 7.75838C3.42559 4.65112 6.09931 2.14445 9.515 2.14445C11.3574 2.14445 12.7023 2.80445 13.6969 3.64993L15.3355 2.15933C13.9497 0.950524 12.0992 0.0307617 9.515 0.0307617C4.83586 0.0308808 0.898438 3.50171 0.898438 7.75838C0.898438 12.0153 4.83586 15.486 9.515 15.486C12.0422 15.486 13.9497 14.7296 15.4415 13.3205C16.974 11.9262 17.4468 9.96838 17.4468 8.38136C17.4468 7.88445 17.3816 7.37279 17.3082 6.99457H9.515V9.05624H15.0665C14.9034 10.3467 14.4551 11.2292 13.7948 11.8298C12.9959 12.5641 11.7324 13.3724 9.515 13.3724Z" fill="#3686F7"/>
</g>
<defs>
<clipPath id="clip0_0_9714">
<rect width="67" height="20" fill="white" transform="translate(0.800781)"/>
</clipPath>
</defs>
</svg>
