<svg width="25" height="24" viewBox="0 0 25 24" fill="none" xmlns="http://www.w3.org/2000/svg">
<path d="M17.9806 15.1045C17.8462 14.9701 17.7614 14.7863 17.7614 14.5742L17.7614 6.73942L9.92661 6.73942C9.51649 6.73942 9.17708 6.40001 9.17708 5.98989C9.17708 5.57977 9.51649 5.24035 9.92661 5.24035L18.5109 5.24035C18.921 5.24035 19.2604 5.57977 19.2604 5.98989L19.2604 14.5742C19.2604 14.9843 18.921 15.3237 18.5109 15.3237C18.3058 15.3308 18.1149 15.2388 17.9806 15.1045Z" fill="#FEFEFE"/>
<path d="M5.95969 18.5414C5.66977 18.2515 5.66977 17.7707 5.95969 17.4807L17.8603 5.58013C18.1502 5.29022 18.631 5.29022 18.921 5.58013C19.2109 5.87005 19.2109 6.35088 18.921 6.64079L7.02035 18.5414C6.73043 18.8313 6.2496 18.8313 5.95969 18.5414Z" fill="#FEFEFE"/>
</svg>
