<svg width="18" height="19" viewBox="0 0 18 19" fill="none" xmlns="http://www.w3.org/2000/svg">
<path d="M3.6 16.1V16.7H4.8V16.1H3.6ZM13.2 16.1V16.7H14.4V16.1H13.2ZM4.8 16.1V15.5H3.6V16.1H4.8ZM7.8 12.5H10.2V11.3H7.8V12.5ZM13.2 15.5V16.1H14.4V15.5H13.2ZM10.2 12.5C10.9957 12.5 11.7587 12.8161 12.3213 13.3787C12.8839 13.9413 13.2 14.7044 13.2 15.5H14.4C14.4 14.3861 13.9575 13.3178 13.1698 12.5302C12.3822 11.7425 11.3139 11.3 10.2 11.3V12.5ZM4.8 15.5C4.8 14.7044 5.11607 13.9413 5.67868 13.3787C6.24129 12.8161 7.00435 12.5 7.8 12.5V11.3C6.68609 11.3 5.6178 11.7425 4.83015 12.5302C4.0425 13.3178 3.6 14.3861 3.6 15.5H4.8ZM9 4.1C8.20435 4.1 7.44129 4.41607 6.87868 4.97868C6.31607 5.54129 6 6.30435 6 7.1H7.2C7.2 6.62261 7.38964 6.16477 7.72721 5.82721C8.06477 5.48964 8.52261 5.3 9 5.3V4.1ZM12 7.1C12 6.30435 11.6839 5.54129 11.1213 4.97868C10.5587 4.41607 9.79565 4.1 9 4.1V5.3C9.47739 5.3 9.93523 5.48964 10.2728 5.82721C10.6104 6.16477 10.8 6.62261 10.8 7.1H12ZM9 10.1C9.79565 10.1 10.5587 9.78393 11.1213 9.22132C11.6839 8.65871 12 7.89565 12 7.1H10.8C10.8 7.57739 10.6104 8.03523 10.2728 8.37279C9.93523 8.71036 9.47739 8.9 9 8.9V10.1ZM9 8.9C8.52261 8.9 8.06477 8.71036 7.72721 8.37279C7.38964 8.03523 7.2 7.57739 7.2 7.1H6C6 7.89565 6.31607 8.65871 6.87868 9.22132C7.44129 9.78393 8.20435 10.1 9 10.1V8.9ZM9 17.3C6.93131 17.3 4.94735 16.4782 3.48457 15.0154C2.02178 13.5526 1.2 11.5687 1.2 9.5H0C0 11.8869 0.948212 14.1761 2.63604 15.864C4.32387 17.5518 6.61305 18.5 9 18.5V17.3ZM16.8 9.5C16.8 10.5243 16.5982 11.5386 16.2063 12.4849C15.8143 13.4313 15.2397 14.2911 14.5154 15.0154C13.7911 15.7397 12.9313 16.3143 11.9849 16.7063C11.0386 17.0982 10.0243 17.3 9 17.3V18.5C11.3869 18.5 13.6761 17.5518 15.364 15.864C17.0518 14.1761 18 11.8869 18 9.5H16.8ZM9 1.7C10.0243 1.7 11.0386 1.90175 11.9849 2.29374C12.9313 2.68573 13.7911 3.26027 14.5154 3.98457C15.2397 4.70886 15.8143 5.56873 16.2063 6.51507C16.5982 7.46141 16.8 8.47569 16.8 9.5H18C18 7.11305 17.0518 4.82387 15.364 3.13604C13.6761 1.44821 11.3869 0.5 9 0.5V1.7ZM9 0.5C6.61305 0.5 4.32387 1.44821 2.63604 3.13604C0.948212 4.82387 0 7.11305 0 9.5H1.2C1.2 7.43131 2.02178 5.44735 3.48457 3.98457C4.94735 2.52178 6.93131 1.7 9 1.7V0.5Z" fill="#22223B"/>
</svg>
