<svg width="18" height="17" viewBox="0 0 18 17" fill="none"
    xmlns="http://www.w3.org/2000/svg">
    <path d="M6.56939 14.2077L6.97977 13.6956L6.56939 14.2077ZM9 3.30191L8.52347 3.75311C8.6474 3.88401 8.81973 3.95816 9 3.95816C9.18027 3.95816 9.3526 3.88401 9.47653 3.75311L9 3.30191ZM11.4306 14.2077L11.841 14.7198L11.4306 14.2077ZM6.97977 13.6956C5.76417 12.7214 4.44413 11.7769 3.39622 10.5774C2.37072 9.4035 1.65625 8.03531 1.65625 6.25923H0.34375C0.34375 8.43789 1.23705 10.1008 2.40778 11.4409C3.5561 12.7553 5.02075 13.8076 6.159 14.7198L6.97977 13.6956ZM1.65625 6.25923C1.65625 4.52144 2.62214 3.07306 3.92659 2.46692C5.18663 1.88142 6.89033 2.02826 8.52347 3.75311L9.47653 2.85072C7.50979 0.773527 5.2135 0.421661 3.37351 1.27665C1.57793 2.11099 0.34375 4.04229 0.34375 6.25923H1.65625ZM6.159 14.7198C6.56822 15.0477 7.01116 15.4004 7.46102 15.6677C7.9104 15.9346 8.43066 16.1562 9 16.1562V14.8438C8.76934 14.8438 8.4896 14.7521 8.13133 14.5392C7.77353 14.3267 7.40117 14.0333 6.97977 13.6956L6.159 14.7198ZM11.841 14.7198C12.9792 13.8076 14.4439 12.7553 15.5922 11.4409C16.763 10.1008 17.6562 8.43789 17.6562 6.25923H16.3438C16.3438 8.03531 15.6293 9.4035 14.6038 10.5774C13.5559 11.7769 12.2358 12.7214 11.0202 13.6956L11.841 14.7198ZM17.6562 6.25923C17.6562 4.04229 16.4221 2.11099 14.6265 1.27665C12.7865 0.421661 10.4902 0.773527 8.52347 2.85072L9.47653 3.75311C11.1097 2.02826 12.8134 1.88142 14.0734 2.46692C15.3779 3.07306 16.3438 4.52144 16.3438 6.25923H17.6562ZM11.0202 13.6956C10.5988 14.0333 10.2265 14.3267 9.86867 14.5392C9.5104 14.7521 9.23066 14.8438 9 14.8438V16.1562C9.56934 16.1562 10.0896 15.9346 10.539 15.6677C10.9888 15.4004 11.4318 15.0477 11.841 14.7198L11.0202 13.6956Z" fill="#22223B"/>
</svg>
